<?xml version="1.0" encoding="UTF-8" standalone="no"?>
<svg
   xmlns:dc="http://purl.org/dc/elements/1.1/"
   xmlns:cc="http://creativecommons.org/ns#"
   xmlns:rdf="http://www.w3.org/1999/02/22-rdf-syntax-ns#"
   xmlns:svg="http://www.w3.org/2000/svg"
   xmlns="http://www.w3.org/2000/svg"
   xmlns:sodipodi="http://sodipodi.sourceforge.net/DTD/sodipodi-0.dtd"
   xmlns:inkscape="http://www.inkscape.org/namespaces/inkscape"
   xml:space="preserve"
   width="162.56mm"
   height="91.44mm"
   version="1.1"
   style="shape-rendering:geometricPrecision; text-rendering:geometricPrecision; image-rendering:optimizeQuality; fill-rule:evenodd; clip-rule:evenodd"
   viewBox="0 0 16255.98 9144"
   id="svg332"
   sodipodi:docname="original - Copy (7).svg"
   inkscape:version="1.0.2-2 (e86c870879, 2021-01-15)"><metadata
   id="metadata336"><rdf:RDF><cc:Work
       rdf:about=""><dc:format>image/svg+xml</dc:format><dc:type
         rdf:resource="http://purl.org/dc/dcmitype/StillImage" /></cc:Work></rdf:RDF></metadata><sodipodi:namedview
   pagecolor="#ffffff"
   bordercolor="#666666"
   borderopacity="1"
   objecttolerance="10"
   gridtolerance="10"
   guidetolerance="10"
   inkscape:pageopacity="0"
   inkscape:pageshadow="2"
   inkscape:window-width="1164"
   inkscape:window-height="819"
   id="namedview334"
   showgrid="false"
   inkscape:zoom="1.6959636"
   inkscape:cx="307.2"
   inkscape:cy="172.8"
   inkscape:window-x="0"
   inkscape:window-y="0"
   inkscape:window-maximized="0"
   inkscape:current-layer="svg332" />
 <defs
   id="defs9">
  <style
   type="text/css"
   id="style2">
   <![CDATA[
    .str0 {stroke:#74294A;stroke-width:7.62;stroke-miterlimit:22.9256;stroke-opacity:0.058824}
    .str3 {stroke:#BDA6C0;stroke-width:8.47;stroke-miterlimit:22.9256;stroke-opacity:0.188235}
    .str9 {stroke:#E5F0F6;stroke-width:20;stroke-miterlimit:22.9256;stroke-opacity:0.850980}
    .str13 {stroke:#001E29;stroke-width:8.47;stroke-miterlimit:22.9256}
    .str10 {stroke:#013F58;stroke-width:8.47;stroke-miterlimit:22.9256}
    .str14 {stroke:#001E29;stroke-width:20;stroke-miterlimit:22.9256}
    .str11 {stroke:#013F58;stroke-width:20;stroke-miterlimit:22.9256}
    .str5 {stroke:#045A8B;stroke-width:20;stroke-miterlimit:22.9256}
    .str4 {stroke:#8BBDD8;stroke-width:20;stroke-miterlimit:22.9256}
    .str6 {stroke:#8BBDD8;stroke-width:20;stroke-miterlimit:22.9256}
    .str2 {stroke:#E5F0F6;stroke-width:20;stroke-miterlimit:22.9256}
    .str1 {stroke:white;stroke-width:20;stroke-miterlimit:22.9256}
    .str12 {stroke:#013F58;stroke-width:7.62;stroke-miterlimit:22.9256}
    .str8 {stroke:#E5F0F6;stroke-width:19.98;stroke-linecap:round;stroke-miterlimit:22.9256}
    .str7 {stroke:#E5F0F6;stroke-width:19.98;stroke-linecap:round;stroke-linejoin:round;stroke-miterlimit:22.9256}
    .fil11 {fill:none}
    .fil16 {fill:#001E29}
    .fil14 {fill:#001E29}
    .fil13 {fill:#013F58}
    .fil7 {fill:#026AA7}
    .fil9 {fill:#045A8B}
    .fil6 {fill:#1E7EBA}
    .fil8 {fill:#8BBDD8}
    .fil10 {fill:#8BBDD8}
    .fil4 {fill:#E5F0F6}
    .fil3 {fill:white}
    .fil15 {fill:#001E29;fill-rule:nonzero}
    .fil2 {fill:#E3D7E3;fill-opacity:0.058824}
    .fil1 {fill:#E3D7E3;fill-opacity:0.090196}
    .fil5 {fill:#BDA6C0;fill-opacity:0.188235}
    .fil12 {fill:#E5F0F6;fill-opacity:0.850980}
    .fil0 {fill:url(#id0)}
   ]]>
  </style>
  <linearGradient
   id="id0"
   gradientUnits="userSpaceOnUse"
   x1="8141.67"
   y1="-0.03"
   x2="8114.31"
   y2="9144.03">
   <stop
   offset="0"
   style="stop-opacity:1; stop-color:#0A4B63"
   id="stop4" />
   <stop
   offset="1"
   style="stop-opacity:1; stop-color:#0097D0"
   id="stop6" />
  </linearGradient>
 </defs>
 
 
 
 
 <g
   id="Lake">
  <metadata
   id="CorelCorpID_4Corel-Layer" />
  <g
   id="_1863370524976">
   <polygon
   class="fil10 str6"
   points="-0.01,9144 16255.98,9144 16255.98,7133.52 -0.01,7133.52 "
   id="polygon158" />
   <line
   class="fil11 str7"
   x1="11270.16"
   y1="7621.04"
   x2="14302.8"
   y2="7621.04"
   id="line160" />
   <line
   class="fil11 str8"
   x1="3348.37"
   y1="8256.83"
   x2="5296.09"
   y2="8256.83"
   id="line162" />
   <line
   class="fil11 str7"
   x1="10432.09"
   y1="7373.79"
   x2="10919.02"
   y2="7373.79"
   id="line164" />
   <line
   class="fil11 str8"
   x1="6507.46"
   y1="8786.65"
   x2="7624.83"
   y2="8786.65"
   id="line166" />
   <line
   class="fil11 str8"
   x1="10129.58"
   y1="8415.82"
   x2="11334.09"
   y2="8415.82"
   id="line168" />
   <line
   class="fil11 str8"
   x1="9914.27"
   y1="8601.26"
   x2="10175.67"
   y2="8601.26"
   id="line170" />
   <line
   class="fil11 str8"
   x1="8937.11"
   y1="8623.29"
   x2="9385.68"
   y2="8623.29"
   id="line172" />
   <line
   class="fil11 str8"
   x1="14115.07"
   y1="8362.86"
   x2="14376.47"
   y2="8362.86"
   id="line174" />
   <line
   class="fil11 str8"
   x1="12427.38"
   y1="7833.04"
   x2="12909.3"
   y2="7833.04"
   id="line176" />
   <line
   class="fil11 str8"
   x1="8589.24"
   y1="7744.71"
   x2="8876.27"
   y2="7744.71"
   id="line178" />
   <line
   class="fil11 str8"
   x1="8721.5"
   y1="8009.57"
   x2="10117.5"
   y2="8009.57"
   id="line180" />
   <line
   class="fil11 str8"
   x1="7536.77"
   y1="7479.78"
   x2="8932.77"
   y2="7479.78"
   id="line182" />
   <line
   class="fil11 str8"
   x1="4106.82"
   y1="8883.81"
   x2="5502.82"
   y2="8883.81"
   id="line184" />
   <line
   class="fil11 str8"
   x1="12797.91"
   y1="7356.16"
   x2="14193.91"
   y2="7356.16"
   id="line186" />
   <line
   class="fil11 str8"
   x1="2100.18"
   y1="7921.32"
   x2="3496.18"
   y2="7921.32"
   id="line188" />
   <line
   class="fil11 str8"
   x1="197.64"
   y1="7532.8"
   x2="1593.65"
   y2="7532.8"
   id="line190" />
   <line
   class="fil11 str8"
   x1="7932.1"
   y1="8380.45"
   x2="7132.51"
   y2="8380.45"
   id="line192" />
   <line
   class="fil11 str8"
   x1="6040.06"
   y1="8663.02"
   x2="5573.63"
   y2="8663.02"
   id="line194" />
   <line
   class="fil11 str8"
   x1="14388.81"
   y1="8592.38"
   x2="15362.67"
   y2="8592.38"
   id="line196" />
   <line
   class="fil11 str8"
   x1="11537.43"
   y1="8795.53"
   x2="12818.81"
   y2="8795.53"
   id="line198" />
   <line
   class="fil11 str8"
   x1="1851.69"
   y1="8592.38"
   x2="3440.6"
   y2="8592.38"
   id="line200" />
   <line
   class="fil11 str8"
   x1="6048.72"
   y1="7497.42"
   x2="5361.03"
   y2="7497.42"
   id="line202" />
   <line
   class="fil11 str8"
   x1="6809.72"
   y1="7974.26"
   x2="6283.02"
   y2="7974.26"
   id="line204" />
   <line
   class="fil11 str8"
   x1="3087.53"
   y1="7603.38"
   x2="2481"
   y2="7603.38"
   id="line206" />
   <line
   class="fil11 str8"
   x1="1273.23"
   y1="8186.24"
   x2="666.7"
   y2="8186.24"
   id="line208" />
  </g>
 </g>
 <g
   id="Shine">
  <metadata
   id="CorelCorpID_5Corel-Layer" />
  <g
   id="_1863370512304">
   <path
   class="fil12 str9"
   d="M7780.79 7133.52c-14.08,0.45 -19.21,25.38 -12.87,46.18 14.95,49.15 60.55,126.82 -36.99,174.83 -306.29,150.79 183.84,189.6 -164.02,259.91 -401.67,81.22 36.52,175.22 -65.5,266.63 -53.94,48.29 -445.97,33.88 -363.46,198.82 24.09,48.14 390.34,104.85 205.7,224.8 -132.25,85.91 -654.81,111.69 -659.76,251.04 -4.89,138.79 556.09,166.13 325.56,260.46 -17.53,7.17 -544.34,-26.18 -447.26,140.91 20.31,34.98 147.84,122.11 256.04,186.9l1932.34 0c259.21,-60.23 578.06,-107.78 578.06,-200.35 0,-111.57 -691.86,-119.76 -426.05,-234.14 18.81,-8.1 321.74,-37.36 407.36,-79.55 563.24,-277.53 -879.28,-204.85 -898.93,-390.99 -31.19,-295.43 604.49,-202.48 402.96,-397.59 -90.28,-87.4 -740.68,12.17 -547.16,-142.29 60.31,-48.14 448.63,-137.18 156.48,-227.71 -224.81,-69.66 -101.48,-222.87 -39.02,-244.31 46.5,-15.96 36.57,-93.55 -50.9,-93.55l-181.75 0c-126,0 -236.96,-4.29 -370.83,0z"
   id="path213" />
   <path
   class="fil12 str9"
   d="M7329.85 7399.74c-19.12,-6.49 -285.43,-76.83 -157.56,3.79 19.96,12.58 229.69,47.27 157.56,-3.79z"
   id="path215" />
   <path
   class="fil12 str9"
   d="M10006.86 8716.68c9.2,-12.92 288.12,39.21 -31.51,103.82 -164.44,33.24 -746.4,12.81 -368.19,-33.36 49.93,-6.09 406.42,-79.9 399.7,-70.46z"
   id="path217" />
   <path
   class="fil12 str9"
   d="M6292.91 8208.68c-8.19,-11.5 -256.37,34.89 28.03,92.37 146.32,29.59 664.16,11.41 327.63,-29.67 -44.44,-5.43 -361.64,-71.1 -355.66,-62.7z"
   id="path219" />
   <path
   class="fil12 str9"
   d="M9486.71 8238.05c243.02,0 -119.69,95.41 -119.69,59.9 0,-28.15 95.47,-59.9 119.69,-59.9z"
   id="path221" />
   <path
   class="fil12 str9"
   d="M8686.52 8102.66c-73.41,5 -64.35,94.11 93.94,1.37 35.53,-20.82 -93.94,-1.37 -93.94,-1.37z"
   id="path223" />
  </g>
 </g>
 
 
 
</svg>
