<?xml version="1.0" encoding="UTF-8" standalone="no"?>
<svg
   xmlns:dc="http://purl.org/dc/elements/1.1/"
   xmlns:cc="http://creativecommons.org/ns#"
   xmlns:rdf="http://www.w3.org/1999/02/22-rdf-syntax-ns#"
   xmlns:svg="http://www.w3.org/2000/svg"
   xmlns="http://www.w3.org/2000/svg"
   xmlns:sodipodi="http://sodipodi.sourceforge.net/DTD/sodipodi-0.dtd"
   xmlns:inkscape="http://www.inkscape.org/namespaces/inkscape"
   xml:space="preserve"
   width="162.56mm"
   height="91.44mm"
   version="1.1"
   style="shape-rendering:geometricPrecision; text-rendering:geometricPrecision; image-rendering:optimizeQuality; fill-rule:evenodd; clip-rule:evenodd"
   viewBox="0 0 16255.98 9144"
   id="svg332"
   sodipodi:docname="original - Copy.svg"
   inkscape:version="1.0.2-2 (e86c870879, 2021-01-15)"><metadata
   id="metadata336"><rdf:RDF><cc:Work
       rdf:about=""><dc:format>image/svg+xml</dc:format><dc:type
         rdf:resource="http://purl.org/dc/dcmitype/StillImage" /></cc:Work></rdf:RDF></metadata><sodipodi:namedview
   pagecolor="#ffffff"
   bordercolor="#666666"
   borderopacity="1"
   objecttolerance="10"
   gridtolerance="10"
   guidetolerance="10"
   inkscape:pageopacity="0"
   inkscape:pageshadow="2"
   inkscape:window-width="1201"
   inkscape:window-height="886"
   id="namedview334"
   showgrid="false"
   inkscape:zoom="1.6959636"
   inkscape:cx="307.2"
   inkscape:cy="172.8"
   inkscape:window-x="0"
   inkscape:window-y="0"
   inkscape:window-maximized="0"
   inkscape:current-layer="svg332" />
 <defs
   id="defs9">
  <style
   type="text/css"
   id="style2">
   <![CDATA[
    .str0 {stroke:#74294A;stroke-width:7.62;stroke-miterlimit:22.9256;stroke-opacity:0.058824}
    .str3 {stroke:#BDA6C0;stroke-width:8.47;stroke-miterlimit:22.9256;stroke-opacity:0.188235}
    .str9 {stroke:#E5F0F6;stroke-width:20;stroke-miterlimit:22.9256;stroke-opacity:0.850980}
    .str13 {stroke:#001E29;stroke-width:8.47;stroke-miterlimit:22.9256}
    .str10 {stroke:#013F58;stroke-width:8.47;stroke-miterlimit:22.9256}
    .str14 {stroke:#001E29;stroke-width:20;stroke-miterlimit:22.9256}
    .str11 {stroke:#013F58;stroke-width:20;stroke-miterlimit:22.9256}
    .str5 {stroke:#045A8B;stroke-width:20;stroke-miterlimit:22.9256}
    .str4 {stroke:#8BBDD8;stroke-width:20;stroke-miterlimit:22.9256}
    .str6 {stroke:#8BBDD8;stroke-width:20;stroke-miterlimit:22.9256}
    .str2 {stroke:#E5F0F6;stroke-width:20;stroke-miterlimit:22.9256}
    .str1 {stroke:white;stroke-width:20;stroke-miterlimit:22.9256}
    .str12 {stroke:#013F58;stroke-width:7.62;stroke-miterlimit:22.9256}
    .str8 {stroke:#E5F0F6;stroke-width:19.98;stroke-linecap:round;stroke-miterlimit:22.9256}
    .str7 {stroke:#E5F0F6;stroke-width:19.98;stroke-linecap:round;stroke-linejoin:round;stroke-miterlimit:22.9256}
    .fil11 {fill:none}
    .fil16 {fill:#001E29}
    .fil14 {fill:#001E29}
    .fil13 {fill:#013F58}
    .fil7 {fill:#026AA7}
    .fil9 {fill:#045A8B}
    .fil6 {fill:#1E7EBA}
    .fil8 {fill:#8BBDD8}
    .fil10 {fill:#8BBDD8}
    .fil4 {fill:#E5F0F6}
    .fil3 {fill:white}
    .fil15 {fill:#001E29;fill-rule:nonzero}
    .fil2 {fill:#E3D7E3;fill-opacity:0.058824}
    .fil1 {fill:#E3D7E3;fill-opacity:0.090196}
    .fil5 {fill:#BDA6C0;fill-opacity:0.188235}
    .fil12 {fill:#E5F0F6;fill-opacity:0.850980}
    .fil0 {fill:url(#id0)}
   ]]>
  </style>
  <linearGradient
   id="id0"
   gradientUnits="userSpaceOnUse"
   x1="8141.67"
   y1="-0.03"
   x2="8114.31"
   y2="9144.03">
   <stop
   offset="0"
   style="stop-opacity:1; stop-color:#0A4B63"
   id="stop4" />
   <stop
   offset="1"
   style="stop-opacity:1; stop-color:#0097D0"
   id="stop6" />
  </linearGradient>
 </defs>
 
 
 
 
 
 
 
 <g
   id="Foreground2">
  <metadata
   id="CorelCorpID_7Corel-Layer" />
  <g
   id="_1863370636768">
   <g
   id="g283">
    <g
   id="g279">
     <g
   id="g273">
      <path
   class="fil14 str13"
   d="M2064.01 6505.14c16.73,14.34 12.02,373.95 -41.82,759.03 -45.21,323.41 -137.61,623.44 -222.9,898.73 -39.2,126.48 -73.24,202.44 -100.66,326.29l-260.9 -24.74c293.18,-560.18 434.17,-994.08 500.93,-1618.46 23.26,-217.54 22.18,-368.02 22.66,-368.54 47.13,-49.61 87.37,14.55 102.69,27.69z"
   id="path265" />
      <path
   class="fil14 str13"
   d="M2500.63 6914.35c-5.5,57.58 -426.31,279.58 -497.71,298.13 -34.93,9.07 -40.65,-19.7 -24.71,-51.69 25.55,-51.23 100.32,-85.68 185.29,-132.46l225.88 -130.24c24.07,-14.52 71.15,-351.21 75.3,-356.39 11.92,-14.92 54.38,-11.37 70.15,15.95 0.04,0.07 -30.92,322.39 -34.2,356.7z"
   id="path267" />
      <path
   class="fil14 str13"
   d="M1419.77 7197.49c3.19,25.56 100.23,99.13 184.36,174.47 103.57,92.73 206.5,190.83 243.52,207.59 15.2,6.88 31.11,-3.97 42.76,-21 13.51,-19.72 21.33,-47.72 15.9,-66.07 -16.27,-54.79 -81.12,-83.53 -152.72,-148.71l-224.12 -204.06c-20.76,-18.88 -96.06,-639.18 -99.19,-644.92 -9.1,-16.66 -101.43,-23.63 -97.54,7.48l87.03 695.22z"
   id="path269" />
      <path
   class="fil14 str14"
   d="M1830.3 5376.29c0.23,-5.32 0.2,-10.68 1,-15.97 93.94,-625.56 1384.75,-420.16 873.57,288.38 125.08,10.6 243.67,45.1 304.4,139.62 46.22,71.97 80.03,193.64 -66,279.16 370.32,172.01 238.55,603.03 -191.63,536.08 -132.73,-20.66 -309.82,-62.85 -366.27,-151.73 -113.86,93.08 -259.53,124.43 -460.31,107.18 -165.8,-14.23 -297.57,-62.04 -395.75,-130.16 -40.88,49.28 -148.17,78.17 -270.82,67.64 -127.3,-10.93 -252.3,-64.44 -356.17,-136.38 -355.04,-245.9 -393.95,-911.04 417.98,-746.02 -106.67,-55.82 -39.89,-198.06 97.23,-272.79 122.12,-66.55 303.69,-77.02 412.77,34.99z"
   id="path271" />
     </g>
     <path
   class="fil14 str13"
   d="M2262.67 8578.32c41.39,-42.9 79.3,-93.72 119.13,-129.03 56.94,-50.45 80.79,-82.38 75.13,-91.43 -7.43,-11.83 -65.33,15.27 -165.61,90.77l3.25 -8.67c62.03,-164.8 142.38,-302.63 120.32,-313.78 -17.58,-8.89 -104.41,82.85 -170.32,203.96 27.49,-124.9 27.01,-228.32 -2.66,-353.94 -28.25,-119.6 -75.83,-216.65 -97.71,-218.52 -36.37,-3.1 18.82,282.3 5.5,437.12 -13.33,154.82 -22.58,173.43 -36.57,249.73 -3.81,-16.53 6.01,4.27 -15.03,-49.01 -7.89,-20.02 -21.4,-55.42 -37.55,-83.01 -26.87,-45.87 -59.07,-82.2 -69.65,-78.12 -12.27,4.77 46.48,208.06 86.48,308.18l185.29 35.75z"
   id="path275" />
     <path
   class="fil14 str13"
   d="M2636.15 8262.88c20.54,11.37 3.56,116.56 -58.18,226.23 -22.07,39.23 -46.89,73.71 -70.62,101.32l-66.81 -21.84c18.01,-34.33 41.84,-75.88 66.98,-120.53 61.74,-109.67 108.09,-196.58 128.63,-185.18z"
   id="path277" />
    </g>
    <path
   class="fil14 str14"
   d="M12095.86 8056.26c-154.13,2.45 -297.3,110.9 -227.18,283.07 78.67,193.16 339.76,162.5 612.27,112.25 242.24,-44.67 479.43,-55.03 616.26,-79.63 201.49,-36.2 137.53,-317.59 -92.74,-192.71 19.57,-124.78 -86.83,-264.58 -270.81,-187 -45.92,-508.96 -781.95,-424.16 -637.8,64.02z"
   id="path281" />
   </g>
   <g
   id="g295">
    <g
   id="g291">
     <path
   class="fil14 str13"
   d="M14666.09 6219.71c21.66,10.5 117.27,390.97 168.22,811.83 42.79,353.46 29.28,695.26 16.35,1009.01 -5.95,144.16 -20.6,233.62 -14.87,371.77l-282.01 45.78c152.44,-671.41 179.74,-1167.74 75.49,-1844.48 -36.33,-235.77 -79.56,-394.15 -79.2,-394.83 35.82,-65.28 96.19,-8.72 116.02,0.92z"
   id="path285" />
     <path
   class="fil14 str13"
   d="M14180.47 7127.17c10.51,26.07 133.41,76.91 243.19,133.17 135.13,69.25 271.1,144.34 314.82,151.81 17.96,3.07 31.7,-12.76 39.22,-33.92 8.73,-24.51 9.14,-56.19 -1.72,-74.04 -32.48,-53.29 -108.89,-65.73 -202.62,-114.73l-293.39 -153.43c-27.16,-14.19 -280.07,-647.49 -284.97,-652.68 -14.26,-15.06 -113.56,3.02 -100.76,34.75l286.23 709.07z"
   id="path287" />
     <path
   class="fil14 str14"
   d="M14731.95 5287.65c269.89,-86.16 525.13,94.03 402.36,338.77 328.15,-75.31 601.3,37.83 566.21,320.77 -52.23,421.11 -507.88,658.22 -863.49,432.37 -116.09,76.8 -206.81,105.01 -414.25,140.58 -207.45,35.56 -405.66,22.79 -582.74,-85.18 -112.92,44.41 -237.72,87.45 -354.27,72.35 -386.49,-50.1 -706.55,-655.32 -209.3,-824.82 -141.26,-197.71 -173.72,-479.45 51.34,-620.18 139.29,-87.11 330,-34.08 463.5,77.2 81.52,-445.79 912.91,-800.3 990.82,-150.24 13.22,110.3 5.46,207.27 -50.18,298.38z"
   id="path289" />
    </g>
    <path
   class="fil14 str13"
   d="M14786.01 7869.34c17.42,-0.71 47.78,72.23 51.65,165.2 0.68,16.33 -0.06,32.8 -1.81,48.91 36.59,-64.59 77.95,-139.32 111.42,-214.27 87.77,-196.52 122.1,-398.4 154,-384.37 31.91,14.03 32.97,234.14 -54.79,430.66 -16.12,36.11 -35.29,71.55 -55.99,105.28 97.54,-89.02 204.77,-145.06 217.86,-131.59 16.43,16.88 -99.41,116.55 -207.17,246.24 -32.59,39.22 -62.5,75.73 -88.74,107.18l-139.47 -77.98c-5.01,-101.95 0.27,-294.74 13.04,-295.26z"
   id="path293" />
   </g>
   <g
   id="g305">
    <g
   id="g301">
     <path
   class="fil14 str13"
   d="M9740.05 8341.53c27.22,1.85 61.84,120.49 51.77,265.8 -3.59,51.98 -12.43,100.33 -23.55,140.92l-80.96 9.9c1.78,-44.84 6.06,-100.1 10.16,-159.27 10.08,-145.32 15.36,-259.22 42.58,-257.35z"
   id="path297" />
     <path
   class="fil14 str13"
   d="M9563.17 8418.56c-23.02,7.77 -5.14,155.65 23.45,239.04 28.59,83.38 31.32,84.62 50.26,117.09l67.74 -9.26c-11.86,-38.22 -28.29,-84.85 -45.46,-134.88 -42.17,-122.87 -72.97,-219.75 -95.99,-211.99z"
   id="path299" />
    </g>
    <path
   class="fil14 str13"
   d="M9358.33 8469.52c-18.4,19.04 74.06,153.64 144.16,220.28 70.1,66.64 73.37,66.48 108.25,88.52l61.04 -42.88c-30.92,-31.16 -70.54,-68.2 -112.62,-108.17 -103.34,-98.17 -182.44,-176.8 -200.83,-157.75z"
   id="path303" />
   </g>
   <path
   class="fil14 str14"
   d="M-0.01 7881.75c37.24,-5.45 90.6,-4.94 125.24,-3.26 254.44,12.38 544.37,133.71 763.77,291.84 957.99,690.5 3037.27,254.32 4515.47,427.17 257.91,30.16 563.65,146.93 732.09,209.21 366.15,135.4 1378.88,-26.8 2261.29,-6.08 1137.33,26.7 2798.45,-203.13 4404.66,-530.57 466.83,-95.16 1062.48,3.8 1513.72,-29.62 726.63,-53.82 890.96,-194.69 1427.77,-295.57 147.12,-27.65 348.22,-51.4 511.97,-63.12l0 1262.25 -16255.98 0 0 -1262.25z"
   id="path307" />
  </g>
 </g>
 
</svg>
