<?xml version="1.0" encoding="UTF-8" standalone="no"?>
<svg
   xmlns:dc="http://purl.org/dc/elements/1.1/"
   xmlns:cc="http://creativecommons.org/ns#"
   xmlns:rdf="http://www.w3.org/1999/02/22-rdf-syntax-ns#"
   xmlns:svg="http://www.w3.org/2000/svg"
   xmlns="http://www.w3.org/2000/svg"
   xmlns:sodipodi="http://sodipodi.sourceforge.net/DTD/sodipodi-0.dtd"
   xmlns:inkscape="http://www.inkscape.org/namespaces/inkscape"
   xml:space="preserve"
   width="162.56mm"
   height="91.44mm"
   version="1.1"
   style="shape-rendering:geometricPrecision; text-rendering:geometricPrecision; image-rendering:optimizeQuality; fill-rule:evenodd; clip-rule:evenodd"
   viewBox="0 0 16255.98 9144"
   id="svg332"
   sodipodi:docname="original - Copy (8).svg"
   inkscape:version="1.0.2-2 (e86c870879, 2021-01-15)"><metadata
   id="metadata336"><rdf:RDF><cc:Work
       rdf:about=""><dc:format>image/svg+xml</dc:format><dc:type
         rdf:resource="http://purl.org/dc/dcmitype/StillImage" /></cc:Work></rdf:RDF></metadata><sodipodi:namedview
   pagecolor="#ffffff"
   bordercolor="#666666"
   borderopacity="1"
   objecttolerance="10"
   gridtolerance="10"
   guidetolerance="10"
   inkscape:pageopacity="0"
   inkscape:pageshadow="2"
   inkscape:window-width="1154"
   inkscape:window-height="768"
   id="namedview334"
   showgrid="false"
   inkscape:zoom="1.6959636"
   inkscape:cx="307.2"
   inkscape:cy="267.14165"
   inkscape:window-x="0"
   inkscape:window-y="0"
   inkscape:window-maximized="0"
   inkscape:current-layer="svg332" />
 <defs
   id="defs9">
  <style
   type="text/css"
   id="style2">
   <![CDATA[
    .str0 {stroke:#74294A;stroke-width:7.62;stroke-miterlimit:22.9256;stroke-opacity:0.058824}
    .str3 {stroke:#BDA6C0;stroke-width:8.47;stroke-miterlimit:22.9256;stroke-opacity:0.188235}
    .str9 {stroke:#E5F0F6;stroke-width:20;stroke-miterlimit:22.9256;stroke-opacity:0.850980}
    .str13 {stroke:#001E29;stroke-width:8.47;stroke-miterlimit:22.9256}
    .str10 {stroke:#013F58;stroke-width:8.47;stroke-miterlimit:22.9256}
    .str14 {stroke:#001E29;stroke-width:20;stroke-miterlimit:22.9256}
    .str11 {stroke:#013F58;stroke-width:20;stroke-miterlimit:22.9256}
    .str5 {stroke:#045A8B;stroke-width:20;stroke-miterlimit:22.9256}
    .str4 {stroke:#8BBDD8;stroke-width:20;stroke-miterlimit:22.9256}
    .str6 {stroke:#8BBDD8;stroke-width:20;stroke-miterlimit:22.9256}
    .str2 {stroke:#E5F0F6;stroke-width:20;stroke-miterlimit:22.9256}
    .str1 {stroke:white;stroke-width:20;stroke-miterlimit:22.9256}
    .str12 {stroke:#013F58;stroke-width:7.62;stroke-miterlimit:22.9256}
    .str8 {stroke:#E5F0F6;stroke-width:19.98;stroke-linecap:round;stroke-miterlimit:22.9256}
    .str7 {stroke:#E5F0F6;stroke-width:19.98;stroke-linecap:round;stroke-linejoin:round;stroke-miterlimit:22.9256}
    .fil11 {fill:none}
    .fil16 {fill:#001E29}
    .fil14 {fill:#001E29}
    .fil13 {fill:#013F58}
    .fil7 {fill:#026AA7}
    .fil9 {fill:#045A8B}
    .fil6 {fill:#1E7EBA}
    .fil8 {fill:#8BBDD8}
    .fil10 {fill:#8BBDD8}
    .fil4 {fill:#E5F0F6}
    .fil3 {fill:white}
    .fil15 {fill:#001E29;fill-rule:nonzero}
    .fil2 {fill:#E3D7E3;fill-opacity:0.058824}
    .fil1 {fill:#E3D7E3;fill-opacity:0.090196}
    .fil5 {fill:#BDA6C0;fill-opacity:0.188235}
    .fil12 {fill:#E5F0F6;fill-opacity:0.850980}
    .fil0 {fill:url(#id0)}
   ]]>
  </style>
  <linearGradient
   id="id0"
   gradientUnits="userSpaceOnUse"
   x1="8141.67"
   y1="-0.03"
   x2="8114.31"
   y2="9144.03">
   <stop
   offset="0"
   style="stop-opacity:1; stop-color:#0A4B63"
   id="stop4" />
   <stop
   offset="1"
   style="stop-opacity:1; stop-color:#0097D0"
   id="stop6" />
  </linearGradient>
 </defs>
 
 
 
 
 
 
 <g
   id="Foreground1"
   style="display:inline">
  <metadata
   id="CorelCorpID_6Corel-Layer" />
  <g
   id="_1863370649776">
   <path
   class="fil13 str10"
   d="m 4434.93,7903.13 c 10.09,7.62 -7.07,62.43 -48.46,116.24 -14.8,19.25 -30.7,35.76 -45.48,48.68 l -33.98,-16.7 c 12.26,-16.95 28.17,-37.3 45.02,-59.21 41.39,-53.81 72.82,-96.65 82.9,-89.01 z"
   id="path228" />
   <path
   class="fil13 str10"
   d="m 4112.65,7946.4 c -6.92,-32.07 -9.89,-66.86 -18.3,-94.91 -12.03,-40.1 -13.91,-61.96 -8.61,-64.58 6.95,-3.41 26.25,26.01 51.33,90.36 l 1.01,-5.01 c 18.98,-95.23 21.48,-183.09 35.11,-181.97 10.86,0.9 24.87,69 20.48,144.85 23.56,-66.55 54,-114.95 104.64,-165.36 48.22,-47.98 98.94,-79.81 109.77,-74.38 18,9.03 -91.31,127.07 -130.28,203.57 -38.97,76.51 -40.05,87.91 -55.77,127.76 6.62,-6.66 -4.07,0.27 21.39,-18.67 9.55,-7.12 26.25,-19.84 41.9,-28.14 26.03,-13.78 51.78,-21.54 55.56,-16.57 4.37,5.77 -82.63,84.24 -130.68,119.7 z"
   id="path230" />
   <path
   class="fil13 str11"
   d="m 5449.96,8128.69 c 113.41,5.24 216.36,88.24 160.83,213.34 -62.31,140.35 -248.12,78.03 -447.62,34.97 -177.32,-38.28 -367.12,-49.09 -466.11,-75.18 -117.48,-30.95 -26.16,-160.9 74.06,-106.49 -11.57,-92.24 77.06,-189.18 210.75,-127.98 43.46,-357.83 555.95,-311.68 473.35,42.67 -1.48,6.35 -3.25,12.58 -5.26,18.67 z"
   id="path232" />
   <g
   id="g240">
    <path
   class="fil13 str10"
   d="m 3763.5,6641.54 c 93.82,183.52 48.51,943.39 32.82,1186.34 -5.24,81.19 -18.32,23.84 -18.76,76.56 l 144.69,17.26 c 21.73,-228.16 13.26,-945.04 -21.07,-1176.59 -13.87,-93.55 -50.81,-105.69 -95.93,-87 -2.42,6.4 -42.1,-17.23 -41.75,-16.57 z"
   id="path234" />
    <path
   class="fil13 str12"
   d="m 3885.85,7127.64 c 0.5,-5.77 286.78,-333.85 307.79,-354 48.06,-46.05 87.73,-18.26 43.55,30.89 -21,23.34 -239.47,337.95 -319,372.4 -22.8,9.87 -36.31,-3.46 -32.34,-49.29 z"
   id="path236" />
    <path
   class="fil13 str11"
   d="m 3527.51,6399.11 c -76.21,25.26 -126.67,64.66 -148.05,125.82 -64.71,185.15 195.54,275.42 404.03,205.73 54.17,32.65 161.04,79.51 243.73,92.12 82.69,12.6 202.62,25.57 270.35,2.93 177.99,251.2 537.18,124.17 505.52,-118.83 -10.06,-77.18 -43.2,-175.42 -178.76,-271.57 157.39,-202.15 -165.73,-330.65 -344.72,-309.07 51.66,-246.7 -111.77,-364.43 -343.73,-305.68 -381.29,96.58 -152.19,431.9 -153.65,432.24 -94.54,-159.74 -423.52,-30.11 -254.72,146.31 z"
   id="path238" />
   </g>
   <g
   id="g250">
    <path
   class="fil13 str10"
   d="m 11533.34,7138.44 c -12.77,9.15 -31.69,264.6 -17.31,541.12 12.07,232.24 59.1,450.76 102.61,651.29 20,92.14 39.47,148.1 51.26,237.66 l 186.78,-1.66 c -173.47,-415.35 -246.71,-731.81 -255.45,-1178.92 -3.04,-155.77 7.04,-262.48 6.74,-262.88 -30.39,-38.07 -62.94,5 -74.63,13.39 z"
   id="path242" />
    <path
   class="fil13 str10"
   d="m 11197.99,7402.19 c 0.34,41.19 285.37,224.36 334.92,241.87 24.24,8.57 30.09,-11.5 20.75,-35.17 -14.97,-37.91 -65.93,-66.91 -123.36,-105.28 l -152.31,-106.18 c -16.19,-11.77 -28.77,-253.54 -31.4,-257.47 -7.54,-11.31 -37.9,-11.38 -50.79,7.04 -0.04,0.05 1.99,230.65 2.19,255.19 z"
   id="path244" />
    <path
   class="fil13 str10"
   d="m 11947.89,7668.96 c -3.85,17.95 -77.3,64.23 -141.7,112.56 -79.28,59.49 -158.44,122.83 -185.76,132.46 -11.22,3.96 -21.85,-4.71 -29.07,-17.51 -8.36,-14.81 -12.19,-35.16 -7.19,-47.84 14.94,-37.89 62.76,-54.33 117.64,-96.21 l 171.77,-131.14 c 15.9,-12.13 107.78,-447.68 110.36,-451.57 7.49,-11.26 73.48,-10.58 68.79,11.26 z"
   id="path246" />
    <path
   class="fil13 str11"
   d="m 11769.18,6351.7 c 0.17,-3.79 0.52,-7.6 0.28,-11.4 -27.96,-449.6 -957.18,-382.51 -638.11,151.39 -89.46,-0.1 -175.81,17.15 -224.78,80.52 -37.27,48.25 -68.81,132.52 29.58,202.1 -273.59,99.49 -206.72,413.35 102.86,392.06 95.52,-6.57 223.88,-25.71 269.46,-85.34 75.07,72.98 176.56,104.1 320.19,104.1 118.6,0 215.12,-25.88 289.05,-68.24 25.97,37.46 100.36,64.5 188.1,64.5 91.06,0 183.13,-30.35 261.33,-75.06 267.32,-152.85 336.13,-622.43 -250.57,-554.82 79.19,-33.11 40.59,-138.11 -52.14,-199.49 -82.59,-54.66 -210.86,-73.16 -295.25,-0.32 z"
   id="path248" />
   </g>
   <path
   class="fil13 str10"
   d="m 10863.15,8368.86 c -8.62,-3.81 -38.58,26.86 -59.23,72.86 -3.63,8.08 -6.57,16.51 -8.93,24.95 -5.42,-39.73 -11.2,-85.5 -12.96,-129.82 -4.63,-116.22 18.71,-224.55 -0.17,-223.81 -18.88,0.74 -63.7,111.23 -59.07,227.44 0.85,21.36 3.36,42.98 6.99,64.04 -31.18,-64.09 -73.86,-113.5 -83.16,-109.32 -11.66,5.24 26.58,78.3 54.71,164.86 8.51,26.18 16.22,50.47 23.1,71.48 l 85.88,-11.6 c 23.03,-50.29 59.16,-148.29 52.84,-151.08 z"
   id="path252" />
   <g
   id="g258">
    <path
   class="fil13 str10"
   d="m 10171.82,8220.78 c -19.11,8.51 -12.22,103.07 34.02,205.02 16.54,36.47 35.88,68.95 54.78,95.24 l 60.97,-14.25 c -13.31,-31.82 -31.22,-70.47 -50.05,-111.99 -46.25,-101.95 -80.61,-182.56 -99.72,-174.02 z"
   id="path254" />
    <path
   class="fil13 str10"
   d="m 10319.91,8229.53 c 18.66,-0.49 45.46,110.7 47.24,178.28 1.78,67.58 0.15,69.19 -4.78,97.57 l -51.29,11.21 c -1.71,-30.64 -2.39,-68.55 -3.44,-109.1 -2.59,-99.6 -6.39,-177.47 12.27,-177.96 z"
   id="path256" />
   </g>
   <path
   class="fil13 str11"
   d="m 5591.65,8351.45 0.01,0.01 c 109.97,32.16 222.6,66.61 326.42,106.75 352.51,105.12 873.16,248.62 943.48,245.61 411.26,-17.59 995.81,-326.05 1331.74,-187.48 218.19,90 573.63,93.9 810.63,45.61 115.88,-23.62 1146.87,-123.22 1615.02,-46.91 190.29,-6.52 363.14,-13.89 493.44,-35.09 197.59,-32.14 1847.52,-535.92 1925.96,-796 192.77,-639.27 593.74,-734.52 1008.2,-1011.81 115.4,-77.2 1168.74,-672.19 1188.95,-768.15 84.3,-400.13 745.71,-89.61 1020.47,-1.13 l 0.01,3241.14 H -0.01 V 5896.2 c 191.52,10.42 466.08,-120.19 511.13,135.8 2.66,15.11 806.15,1486.32 1042.44,1476.25 106.21,-4.53 400.05,-204.6 725.9,-251.77 372.91,-53.99 776.89,51.27 802.45,176.77 60.81,298.51 537.95,371.67 899.28,438.72 114.71,21.29 707.43,400.01 805.17,406.02 126.82,7.79 424.99,-36.96 693.18,40.93 36.74,10.67 74.26,21.47 112.11,32.54 z"
   id="path260" />
  </g>
 </g>
 
 
</svg>
