<?xml version="1.0" encoding="UTF-8" standalone="no"?>
<svg
   xmlns:dc="http://purl.org/dc/elements/1.1/"
   xmlns:cc="http://creativecommons.org/ns#"
   xmlns:rdf="http://www.w3.org/1999/02/22-rdf-syntax-ns#"
   xmlns:svg="http://www.w3.org/2000/svg"
   xmlns="http://www.w3.org/2000/svg"
   xmlns:sodipodi="http://sodipodi.sourceforge.net/DTD/sodipodi-0.dtd"
   xmlns:inkscape="http://www.inkscape.org/namespaces/inkscape"
   xml:space="preserve"
   width="162.56mm"
   height="91.44mm"
   version="1.1"
   style="shape-rendering:geometricPrecision; text-rendering:geometricPrecision; image-rendering:optimizeQuality; fill-rule:evenodd; clip-rule:evenodd"
   viewBox="0 0 16255.98 9144"
   id="svg332"
   sodipodi:docname="original - Copy (2).svg"
   inkscape:version="1.0.2-2 (e86c870879, 2021-01-15)"><metadata
   id="metadata336"><rdf:RDF><cc:Work
       rdf:about=""><dc:format>image/svg+xml</dc:format><dc:type
         rdf:resource="http://purl.org/dc/dcmitype/StillImage" /></cc:Work></rdf:RDF></metadata><sodipodi:namedview
   pagecolor="#ffffff"
   bordercolor="#666666"
   borderopacity="1"
   objecttolerance="10"
   gridtolerance="10"
   guidetolerance="10"
   inkscape:pageopacity="0"
   inkscape:pageshadow="2"
   inkscape:window-width="1129"
   inkscape:window-height="806"
   id="namedview334"
   showgrid="false"
   inkscape:zoom="1.6959636"
   inkscape:cx="307.2"
   inkscape:cy="172.8"
   inkscape:window-x="0"
   inkscape:window-y="0"
   inkscape:window-maximized="0"
   inkscape:current-layer="svg332" />
 <defs
   id="defs9">
  <style
   type="text/css"
   id="style2">
   <![CDATA[
    .str0 {stroke:#74294A;stroke-width:7.62;stroke-miterlimit:22.9256;stroke-opacity:0.058824}
    .str3 {stroke:#BDA6C0;stroke-width:8.47;stroke-miterlimit:22.9256;stroke-opacity:0.188235}
    .str9 {stroke:#E5F0F6;stroke-width:20;stroke-miterlimit:22.9256;stroke-opacity:0.850980}
    .str13 {stroke:#001E29;stroke-width:8.47;stroke-miterlimit:22.9256}
    .str10 {stroke:#013F58;stroke-width:8.47;stroke-miterlimit:22.9256}
    .str14 {stroke:#001E29;stroke-width:20;stroke-miterlimit:22.9256}
    .str11 {stroke:#013F58;stroke-width:20;stroke-miterlimit:22.9256}
    .str5 {stroke:#045A8B;stroke-width:20;stroke-miterlimit:22.9256}
    .str4 {stroke:#8BBDD8;stroke-width:20;stroke-miterlimit:22.9256}
    .str6 {stroke:#8BBDD8;stroke-width:20;stroke-miterlimit:22.9256}
    .str2 {stroke:#E5F0F6;stroke-width:20;stroke-miterlimit:22.9256}
    .str1 {stroke:white;stroke-width:20;stroke-miterlimit:22.9256}
    .str12 {stroke:#013F58;stroke-width:7.62;stroke-miterlimit:22.9256}
    .str8 {stroke:#E5F0F6;stroke-width:19.98;stroke-linecap:round;stroke-miterlimit:22.9256}
    .str7 {stroke:#E5F0F6;stroke-width:19.98;stroke-linecap:round;stroke-linejoin:round;stroke-miterlimit:22.9256}
    .fil11 {fill:none}
    .fil16 {fill:#001E29}
    .fil14 {fill:#001E29}
    .fil13 {fill:#013F58}
    .fil7 {fill:#026AA7}
    .fil9 {fill:#045A8B}
    .fil6 {fill:#1E7EBA}
    .fil8 {fill:#8BBDD8}
    .fil10 {fill:#8BBDD8}
    .fil4 {fill:#E5F0F6}
    .fil3 {fill:white}
    .fil15 {fill:#001E29;fill-rule:nonzero}
    .fil2 {fill:#E3D7E3;fill-opacity:0.058824}
    .fil1 {fill:#E3D7E3;fill-opacity:0.090196}
    .fil5 {fill:#BDA6C0;fill-opacity:0.188235}
    .fil12 {fill:#E5F0F6;fill-opacity:0.850980}
    .fil0 {fill:url(#id0)}
   ]]>
  </style>
  <linearGradient
   id="id0"
   gradientUnits="userSpaceOnUse"
   x1="8141.67"
   y1="-0.03"
   x2="8114.31"
   y2="9144.03">
   <stop
   offset="0"
   style="stop-opacity:1; stop-color:#0A4B63"
   id="stop4" />
   <stop
   offset="1"
   style="stop-opacity:1; stop-color:#0097D0"
   id="stop6" />
  </linearGradient>
 </defs>
 
 
 
 <g
   id="Grass"
   style="display:inline">
  <metadata
   id="CorelCorpID_3Corel-Layer" />
  <g
   id="_1863370478368">
   <path
   class="fil9 str5"
   d="m -0.01,6163.08 c 1698.36,-626.99 4542.93,206.76 5747.3,292.21 2631.85,186.75 5436.09,-526.82 7416.26,-678.28 461.11,-35.27 2225.91,130.5 3092.43,388.03 v 976.14 H -0.01 Z"
   id="path103" />
   <path
   class="fil9 str5"
   d="m 10155.62,5787.28 c 19.48,0 4.4,105.92 4.4,229.92 0,124 -15.79,224.53 -35.27,224.53 -51.99,0 -42.72,-454.45 30.87,-454.45 z"
   id="path105" />
   <path
   class="fil9 str5"
   d="m 5050.42,6068.05 c -19.45,-1.06 -10.43,105.52 -17.5,229.33 -7.07,123.81 2.96,225.04 22.41,226.1 51.91,2.84 68.56,-451.4 -4.91,-455.43 z"
   id="path107" />
   <path
   class="fil9 str5"
   d="m 10350.17,5679.93 c 21.37,0 4.82,116.2 4.82,252.24 0,136.05 -17.32,246.33 -38.69,246.33 -57.04,0 -46.87,-498.57 33.87,-498.57 z"
   id="path109" />
   <path
   class="fil9 str5"
   d="m 4862.29,5950.24 c -21.34,-1.17 -11.44,115.76 -19.2,251.59 -7.75,135.83 3.26,246.89 24.59,248.05 56.95,3.12 75.22,-495.23 -5.39,-499.64 z"
   id="path111" />
   <path
   class="fil9 str5"
   d="m 10022.03,5659.51 c -24.49,0 -5.53,133.19 -5.53,289.11 0,155.92 19.85,282.31 44.35,282.31 65.37,0 53.71,-571.42 -38.82,-571.42 z"
   id="path113" />
   <path
   class="fil9 str5"
   d="m 5191.08,5947.79 c 24.45,1.34 -2.07,133.28 -10.96,288.96 -8.89,155.67 -35.92,280.79 -60.37,279.45 -65.27,-3.57 -21.06,-573.47 71.33,-568.41 z"
   id="path115" />
   <path
   class="fil9 str5"
   d="m 10410.69,5763.74 c 18.43,0 4.16,100.22 4.16,217.56 0,117.34 -14.94,212.46 -33.37,212.46 -49.19,0 -40.42,-430.02 29.21,-430.02 z"
   id="path117" />
   <path
   class="fil9 str5"
   d="m 4797.08,6030.61 c -18.4,-1 -9.87,99.84 -16.56,217 -6.68,117.15 2.81,212.94 21.21,213.94 49.12,2.69 64.88,-427.13 -4.65,-430.94 z"
   id="path119" />
   <path
   class="fil9 str5"
   d="m 4304.3,5914.03 c -18.4,-1.01 -9.87,99.84 -16.56,217 -6.68,117.15 2.81,212.94 21.21,213.94 49.12,2.69 64.88,-427.13 -4.65,-430.94 z"
   id="path121" />
   <path
   class="fil9 str5"
   d="m 3575.35,5755.13 c -18.4,-1.01 -9.87,99.84 -16.56,216.99 -6.68,117.16 2.81,212.94 21.21,213.95 49.12,2.69 64.88,-427.13 -4.65,-430.94 z"
   id="path123" />
   <ellipse
   class="fil9 str5"
   cx="10678.73"
   cy="5990.3799"
   rx="17.780001"
   ry="129"
   id="ellipse125" />
   <ellipse
   class="fil9 str5"
   transform="matrix(-0.908577,-0.0497378,-0.0582518,1.02026,5595.99,6492.08)"
   rx="20.389999"
   ry="131.74001"
   id="ellipse127"
   cx="0"
   cy="0" />
   <ellipse
   class="fil9 str5"
   transform="matrix(-0.908577,-0.0497378,-0.0582518,1.02026,5428.6,6361.96)"
   rx="20.389999"
   ry="131.74001"
   id="ellipse129"
   cx="0"
   cy="0" />
   <ellipse
   class="fil9 str5"
   cx="10714.52"
   cy="5954.27"
   rx="17.780001"
   ry="150.28999"
   id="ellipse131" />
   <ellipse
   class="fil9 str5"
   transform="matrix(-0.908577,-0.0497378,-0.0582518,1.02026,5543.11,6388.83)"
   rx="20.389999"
   ry="131.74001"
   id="ellipse133"
   cx="0"
   cy="0" />
   <ellipse
   class="fil9 str5"
   transform="matrix(-0.870636,-0.0476609,-0.0558193,0.977655,3647.62,6037.74)"
   rx="20.389999"
   ry="131.74001"
   id="ellipse135"
   cx="0"
   cy="0" />
   <ellipse
   class="fil9 str5"
   transform="matrix(-0.870636,-0.0476609,-0.0558193,0.977655,3714.99,6074.33)"
   rx="20.389999"
   ry="131.74001"
   id="ellipse137"
   cx="0"
   cy="0" />
   <ellipse
   class="fil9 str5"
   transform="matrix(0.867666,0.0849817,-0.0995285,0.974319,10763.6,6010.22)"
   rx="20.389999"
   ry="131.74001"
   id="ellipse139"
   cx="0"
   cy="0" />
   <ellipse
   class="fil9 str5"
   transform="matrix(-0.908577,-0.0497378,-0.0582518,1.02026,5477.2,6454.11)"
   rx="20.389999"
   ry="131.74001"
   id="ellipse141"
   cx="0"
   cy="0" />
   <ellipse
   class="fil9 str5"
   cx="9962.2002"
   cy="6122.3501"
   rx="17.780001"
   ry="129"
   id="ellipse143" />
   <ellipse
   class="fil9 str5"
   transform="matrix(-0.908577,-0.0497378,-0.0582518,1.02026,5224.91,6361.89)"
   rx="20.389999"
   ry="131.74001"
   id="ellipse145"
   cx="0"
   cy="0" />
   <ellipse
   class="fil9 str5"
   cx="9902.0098"
   cy="6134.02"
   rx="17.780001"
   ry="129"
   id="ellipse147" />
   <ellipse
   class="fil9 str5"
   transform="matrix(-0.908577,-0.0497378,-0.0582518,1.02026,5287.31,6419.47)"
   rx="20.389999"
   ry="131.74001"
   id="ellipse149"
   cx="0"
   cy="0" />
   <ellipse
   class="fil9 str5"
   transform="matrix(0.852544,-0.179342,0.210041,0.957338,9845.84,6110.88)"
   rx="20.389999"
   ry="131.74001"
   id="ellipse151"
   cx="0"
   cy="0" />
   <ellipse
   class="fil9 str5"
   transform="matrix(-0.908577,-0.0497378,-0.0582518,1.02026,5334.83,6313.75)"
   rx="20.389999"
   ry="131.74001"
   id="ellipse153"
   cx="0"
   cy="0" />
  </g>
 </g>
 
 
 
 
 
</svg>
