<?xml version="1.0" encoding="UTF-8" standalone="no"?>
<svg
   xmlns:dc="http://purl.org/dc/elements/1.1/"
   xmlns:cc="http://creativecommons.org/ns#"
   xmlns:rdf="http://www.w3.org/1999/02/22-rdf-syntax-ns#"
   xmlns:svg="http://www.w3.org/2000/svg"
   xmlns="http://www.w3.org/2000/svg"
   xmlns:sodipodi="http://sodipodi.sourceforge.net/DTD/sodipodi-0.dtd"
   xmlns:inkscape="http://www.inkscape.org/namespaces/inkscape"
   xml:space="preserve"
   width="162.56mm"
   height="91.44mm"
   version="1.1"
   style="shape-rendering:geometricPrecision; text-rendering:geometricPrecision; image-rendering:optimizeQuality; fill-rule:evenodd; clip-rule:evenodd"
   viewBox="0 0 16255.98 9144"
   id="svg332"
   sodipodi:docname="original - Copy (3).svg"
   inkscape:version="1.0.2-2 (e86c870879, 2021-01-15)"><metadata
   id="metadata336"><rdf:RDF><cc:Work
       rdf:about=""><dc:format>image/svg+xml</dc:format><dc:type
         rdf:resource="http://purl.org/dc/dcmitype/StillImage" /></cc:Work></rdf:RDF></metadata><sodipodi:namedview
   pagecolor="#ffffff"
   bordercolor="#666666"
   borderopacity="1"
   objecttolerance="10"
   gridtolerance="10"
   guidetolerance="10"
   inkscape:pageopacity="0"
   inkscape:pageshadow="2"
   inkscape:window-width="1267"
   inkscape:window-height="869"
   id="namedview334"
   showgrid="false"
   inkscape:zoom="1.6959636"
   inkscape:cx="307.2"
   inkscape:cy="172.8"
   inkscape:window-x="0"
   inkscape:window-y="0"
   inkscape:window-maximized="0"
   inkscape:current-layer="svg332" />
 <defs
   id="defs9">
  <style
   type="text/css"
   id="style2">
   <![CDATA[
    .str0 {stroke:#74294A;stroke-width:7.62;stroke-miterlimit:22.9256;stroke-opacity:0.058824}
    .str3 {stroke:#BDA6C0;stroke-width:8.47;stroke-miterlimit:22.9256;stroke-opacity:0.188235}
    .str9 {stroke:#E5F0F6;stroke-width:20;stroke-miterlimit:22.9256;stroke-opacity:0.850980}
    .str13 {stroke:#001E29;stroke-width:8.47;stroke-miterlimit:22.9256}
    .str10 {stroke:#013F58;stroke-width:8.47;stroke-miterlimit:22.9256}
    .str14 {stroke:#001E29;stroke-width:20;stroke-miterlimit:22.9256}
    .str11 {stroke:#013F58;stroke-width:20;stroke-miterlimit:22.9256}
    .str5 {stroke:#045A8B;stroke-width:20;stroke-miterlimit:22.9256}
    .str4 {stroke:#8BBDD8;stroke-width:20;stroke-miterlimit:22.9256}
    .str6 {stroke:#8BBDD8;stroke-width:20;stroke-miterlimit:22.9256}
    .str2 {stroke:#E5F0F6;stroke-width:20;stroke-miterlimit:22.9256}
    .str1 {stroke:white;stroke-width:20;stroke-miterlimit:22.9256}
    .str12 {stroke:#013F58;stroke-width:7.62;stroke-miterlimit:22.9256}
    .str8 {stroke:#E5F0F6;stroke-width:19.98;stroke-linecap:round;stroke-miterlimit:22.9256}
    .str7 {stroke:#E5F0F6;stroke-width:19.98;stroke-linecap:round;stroke-linejoin:round;stroke-miterlimit:22.9256}
    .fil11 {fill:none}
    .fil16 {fill:#001E29}
    .fil14 {fill:#001E29}
    .fil13 {fill:#013F58}
    .fil7 {fill:#026AA7}
    .fil9 {fill:#045A8B}
    .fil6 {fill:#1E7EBA}
    .fil8 {fill:#8BBDD8}
    .fil10 {fill:#8BBDD8}
    .fil4 {fill:#E5F0F6}
    .fil3 {fill:white}
    .fil15 {fill:#001E29;fill-rule:nonzero}
    .fil2 {fill:#E3D7E3;fill-opacity:0.058824}
    .fil1 {fill:#E3D7E3;fill-opacity:0.090196}
    .fil5 {fill:#BDA6C0;fill-opacity:0.188235}
    .fil12 {fill:#E5F0F6;fill-opacity:0.850980}
    .fil0 {fill:url(#id0)}
   ]]>
  </style>
  <linearGradient
   id="id0"
   gradientUnits="userSpaceOnUse"
   x1="8141.67"
   y1="-0.03"
   x2="8114.31"
   y2="9144.03">
   <stop
   offset="0"
   style="stop-opacity:1; stop-color:#0A4B63"
   id="stop4" />
   <stop
   offset="1"
   style="stop-opacity:1; stop-color:#0097D0"
   id="stop6" />
  </linearGradient>
 </defs>
 
 
 <g
   id="Mountains"
   style="display:inline">
  <metadata
   id="CorelCorpID_2Corel-Layer" />
  <g
   id="_1863370485904">
   <path
   class="fil6"
   d="m -0.02,6826.66 16256,-1.42 V 4485.45 c -667.35,-738.7 -2510.86,-2200.01 -2838.09,-2441.26 -177.66,-131 -1178.54,1109.85 -1458.3,1327.98 -749.44,584.38 -402,398.49 -1043.05,162.02 -103.1,-38.05 -2658.08,1680.35 -2988.27,1622.44 -575.8,-100.98 -2586.26,-1966.38 -3013.16,-2408.18 -243.88,-252.4 -931.01,857.8 -1343.99,814.25 -304.86,-32.14 -337.61,-239.7 -419.79,-222.52 -243.06,50.83 -676.52,434.75 -988.07,739.37 -676.28,661.26 -554.94,226.56 -1224.58,-544.73 -45.94,-52.92 -519.24,619.91 -938.7,946.62 z"
   id="path92" />
   <path
   class="fil7"
   d="m -0.01,5441.11 c 807.47,-283.16 1800.2,213.69 2209.68,-280.55 146.39,-176.7 686.71,-550.23 943.7,-586.35 432.31,-60.78 613.61,-49.08 1035.4,1.41 503.01,60.22 2548.56,1476.6 3414.29,1476.6 1443.21,0 1907.62,-607.92 2752.58,-689.2 633.01,-60.89 1496.99,66.81 1912.79,-539.57 317.72,-463.35 1171.53,-557.17 1706.65,-499.92 327.79,35.06 1653.48,712.12 2280.9,1093.31 V 6848.3 L -0.01,6848.48 Z"
   id="path94" />
   <path
   class="fil8 str4"
   d="m 4847.42,2775.57 c 360.79,388.63 2258.52,2716.15 3262.79,2737.86 602.78,13.01 2803.94,-1981.31 2802.28,-1981.24 -47.91,2.11 -102.34,39.95 -171.45,75.92 -605.12,315.03 -2357.73,1519.52 -2766.08,1546.88 -237.01,15.89 -862.53,-456.27 -1041.41,-605.4 -395.47,-329.71 -795.18,-665.63 -1181.99,-1006.19 -311.8,-274.53 -630.98,-604.16 -799.6,-749.68 -7.13,-6.15 -14,-11.99 -20.59,-17.47 -28.7,-23.88 -53.4,-50.52 -91.33,-57.92 -26.93,-5.27 -25.43,21.91 7.38,57.24 z"
   id="path96" />
   <path
   class="fil8 str4"
   d="m 13359.33,2037.35 c 8.06,28.35 -1174.28,1409.34 -1502.11,1410.01 540.82,-444.78 865.49,-957.4 1406.05,-1353.84 52.11,-38.21 96.06,-56.17 96.06,-56.17 z"
   id="path98" />
  </g>
 </g>
 
 
 
 
 
 
</svg>
