<?xml version="1.0" encoding="UTF-8"?>
<!DOCTYPE svg PUBLIC "-//W3C//DTD SVG 1.1//EN" "http://www.w3.org/Graphics/SVG/1.1/DTD/svg11.dtd">
<!-- Creator: CorelDRAW 2020 (64-Bit) -->
<svg xmlns="http://www.w3.org/2000/svg" xml:space="preserve" width="162.56mm" height="91.44mm" version="1.1" style="shape-rendering:geometricPrecision; text-rendering:geometricPrecision; image-rendering:optimizeQuality; fill-rule:evenodd; clip-rule:evenodd"
viewBox="0 0 16255.98 9144"
 xmlns:xlink="http://www.w3.org/1999/xlink"
 xmlns:xodm="http://www.corel.com/coreldraw/odm/2003">
 <defs>
  <style type="text/css">
   <![CDATA[
    .str0 {stroke:#74294A;stroke-width:7.62;stroke-miterlimit:22.9256;stroke-opacity:0.058824}
    .str3 {stroke:#BDA6C0;stroke-width:8.47;stroke-miterlimit:22.9256;stroke-opacity:0.188235}
    .str9 {stroke:#E5F0F6;stroke-width:20;stroke-miterlimit:22.9256;stroke-opacity:0.850980}
    .str13 {stroke:#001E29;stroke-width:8.47;stroke-miterlimit:22.9256}
    .str10 {stroke:#013F58;stroke-width:8.47;stroke-miterlimit:22.9256}
    .str14 {stroke:#001E29;stroke-width:20;stroke-miterlimit:22.9256}
    .str11 {stroke:#013F58;stroke-width:20;stroke-miterlimit:22.9256}
    .str5 {stroke:#045A8B;stroke-width:20;stroke-miterlimit:22.9256}
    .str4 {stroke:#8BBDD8;stroke-width:20;stroke-miterlimit:22.9256}
    .str6 {stroke:#8BBDD8;stroke-width:20;stroke-miterlimit:22.9256}
    .str2 {stroke:#E5F0F6;stroke-width:20;stroke-miterlimit:22.9256}
    .str1 {stroke:white;stroke-width:20;stroke-miterlimit:22.9256}
    .str12 {stroke:#013F58;stroke-width:7.62;stroke-miterlimit:22.9256}
    .str8 {stroke:#E5F0F6;stroke-width:19.98;stroke-linecap:round;stroke-miterlimit:22.9256}
    .str7 {stroke:#E5F0F6;stroke-width:19.98;stroke-linecap:round;stroke-linejoin:round;stroke-miterlimit:22.9256}
    .fil11 {fill:none}
    .fil16 {fill:#001E29}
    .fil14 {fill:#001E29}
    .fil13 {fill:#013F58}
    .fil7 {fill:#026AA7}
    .fil9 {fill:#045A8B}
    .fil6 {fill:#1E7EBA}
    .fil8 {fill:#8BBDD8}
    .fil10 {fill:#8BBDD8}
    .fil4 {fill:#E5F0F6}
    .fil3 {fill:white}
    .fil15 {fill:#001E29;fill-rule:nonzero}
    .fil2 {fill:#E3D7E3;fill-opacity:0.058824}
    .fil1 {fill:#E3D7E3;fill-opacity:0.090196}
    .fil5 {fill:#BDA6C0;fill-opacity:0.188235}
    .fil12 {fill:#E5F0F6;fill-opacity:0.850980}
    .fil0 {fill:url(#id0)}
   ]]>
  </style>
  <linearGradient id="id0" gradientUnits="userSpaceOnUse" x1="8141.67" y1="-0.03" x2="8114.31" y2="9144.03">
   <stop offset="0" style="stop-opacity:1; stop-color:#0A4B63"/>
   <stop offset="1" style="stop-opacity:1; stop-color:#0097D0"/>
  </linearGradient>
 </defs>
 <g id="Background">
  <metadata id="CorelCorpID_0Corel-Layer"/>
  <g id="_1863370490368">
   <rect class="fil0" x="-0.01" y="-0" width="16255.99" height="9144"/>
   <g>
    <path class="fil1" d="M8185.99 1689.43c1614.66,0 2923.6,1305.12 2923.6,2915.08 0,1609.96 -1308.94,2915.08 -2923.6,2915.08 -1614.67,0 -2923.61,-1305.12 -2923.61,-2915.08 0,-1609.96 1308.94,-2915.08 2923.61,-2915.08z"/>
    <path class="fil2 str0" d="M8221.21 814.33c2070.19,0 3748.4,1673.31 3748.4,3737.47 0,2064.15 -1678.21,3737.47 -3748.4,3737.47 -2070.19,0 -3748.4,-1673.32 -3748.4,-3737.47 0,-2064.16 1678.21,-3737.47 3748.4,-3737.47z"/>
    <ellipse class="fil3 str1" cx="8185.99" cy="4604.5" rx="2052.59" ry="2046.61"/>
   </g>
   <ellipse class="fil4 str2" cx="3004.75" cy="2680.35" rx="36.22" ry="36.12"/>
   <ellipse class="fil4 str2" cx="12361.37" cy="782.08" rx="36.22" ry="36.12"/>
   <ellipse class="fil4 str2" cx="1538.84" cy="3575.31" rx="36.22" ry="36.12"/>
   <ellipse class="fil4 str2" cx="3653.11" cy="1186.14" rx="36.22" ry="36.12"/>
   <ellipse class="fil4 str2" cx="7745.21" cy="1291.55" rx="36.22" ry="36.12"/>
   <ellipse class="fil4 str2" cx="11528.73" cy="2152.35" rx="36.22" ry="36.12"/>
   <ellipse class="fil4 str2" cx="12867.77" cy="465.88" rx="36.22" ry="36.12"/>
   <ellipse class="fil4 str2" cx="14757.51" cy="2837.48" rx="36.22" ry="36.12"/>
   <ellipse class="fil4 str2" cx="15810.12" cy="449.28" rx="36.22" ry="36.12"/>
   <ellipse class="fil4 str2" cx="10388.04" cy="3276.67" rx="36.22" ry="36.12"/>
   <ellipse class="fil4 str2" cx="4216.91" cy="554.69" rx="36.22" ry="36.12"/>
   <ellipse class="fil4 str2" cx="3600.26" cy="3224.95" rx="36.22" ry="36.12"/>
   <ellipse class="fil4 str2" cx="398.15" cy="3030.73" rx="36.22" ry="36.12"/>
   <ellipse class="fil4 str2" cx="428.86" cy="906.04" rx="36.22" ry="36.12"/>
   <ellipse class="fil4 str2" cx="1379.29" cy="1204.68" rx="36.22" ry="36.12"/>
   <ellipse class="fil4 str2" cx="709.78" cy="1907.39" rx="36.22" ry="36.12"/>
   <ellipse class="fil4 str2" cx="2665.47" cy="1784.42" rx="36.22" ry="36.12"/>
   <ellipse class="fil4 str2" cx="4409.73" cy="2750.63" rx="36.22" ry="36.12"/>
   <ellipse class="fil4 str2" cx="6576.86" cy="712.79" rx="36.22" ry="36.12"/>
   <ellipse class="fil4 str2" cx="6899.51" cy="2451.01" rx="36.22" ry="36.12"/>
   <ellipse class="fil4 str2" cx="9748.25" cy="431.72" rx="36.22" ry="36.12"/>
   <ellipse class="fil4 str2" cx="13471.34" cy="1467.23" rx="36.22" ry="36.12"/>
   <ellipse class="fil4 str2" cx="10916.61" cy="1151.01" rx="36.22" ry="36.12"/>
   <ellipse class="fil4 str2" cx="14863.22" cy="1115.87" rx="36.22" ry="36.12"/>
   <ellipse class="fil4 str2" cx="13174.68" cy="2903.45" rx="36.22" ry="36.12"/>
   <ellipse class="fil4 str2" cx="13899.59" cy="452" rx="36.22" ry="36.12"/>
  </g>
 </g>
 <g id="Clouds">
  <metadata id="CorelCorpID_1Corel-Layer"/>
  <g id="_1863370486960">
   <path class="fil5 str3" d="M11402.07 1141.58c151.1,-945.91 -1098.82,-1010.52 -1422.11,-282.22 -253.38,-280.16 -674.11,-71.28 -686.8,278.66 -217.78,-257.69 -650.25,9.07 -484.87,316.66l3235.8 0c158.74,-324.79 -354.27,-713.11 -642.02,-313.1z"/>
   <path class="fil5 str3" d="M1733.1 2421.84c-111.23,-696.3 808.87,-743.86 1046.85,-207.74 186.52,-206.24 496.24,-52.47 505.57,205.13 160.32,-189.7 478.67,6.68 356.93,233.1l-2381.96 0c-116.85,-239.09 260.78,-524.94 472.61,-230.49z"/>
   <path class="fil5 str3" d="M2083.62 843.4c-198.27,-576.36 -1393.18,-496.51 -1165.4,100.3 -125.99,-120.86 -429.43,-52.52 -376.12,195.03l2057.53 0c50.39,-270.24 -278.91,-567.25 -516.01,-295.33z"/>
   <path class="fil5 str3" d="M12173.41 2485c198.27,-576.35 1393.18,-496.5 1165.4,100.31 125.99,-120.86 429.43,-52.52 376.12,195.02l-2057.53 0c-50.39,-270.23 278.91,-567.24 516.01,-295.33z"/>
   <path class="fil5 str3" d="M4382.85 1035.56l1685.32 0c138.24,-188.41 -91.19,-352.99 -281.89,-228.6 48.12,-489.42 -728.29,-449.63 -863.78,-4.72 -132.38,-136.68 -341.21,-106.1 -448.01,-14.16 -97.22,83.72 -99.14,222.77 -91.64,247.48z"/>
   <path class="fil5 str3" d="M15641.62 1009.81l-1558.97 0c-127.87,-174.28 84.35,-326.52 260.76,-211.46 -44.52,-452.72 673.68,-415.92 799.01,-4.36 122.46,-126.44 315.64,-98.15 414.42,-13.11 89.94,77.45 91.71,206.07 84.78,228.93z"/>
  </g>
 </g>
 <g id="Mountains">
  <metadata id="CorelCorpID_2Corel-Layer"/>
  <g id="_1863370485904">
   <path class="fil6" d="M-0.02 6826.66l16256 -1.42 0 -2339.79c-667.35,-738.7 -2510.86,-2200.01 -2838.09,-2441.26 -177.66,-131 -1178.54,1109.85 -1458.3,1327.98 -749.44,584.38 -402,398.49 -1043.05,162.02 -103.1,-38.05 -2658.08,1680.35 -2988.27,1622.44 -575.8,-100.98 -2586.26,-1966.38 -3013.16,-2408.18 -243.88,-252.4 -931.01,857.8 -1343.99,814.25 -304.86,-32.14 -337.61,-239.7 -419.79,-222.52 -243.06,50.83 -676.52,434.75 -988.07,739.37 -676.28,661.26 -554.94,226.56 -1224.58,-544.73 -45.94,-52.92 -519.24,619.91 -938.7,946.62l0 2345.22z"/>
   <path class="fil7" d="M-0.01 5441.11c807.47,-283.16 1800.2,213.69 2209.68,-280.55 146.39,-176.7 686.71,-550.23 943.7,-586.35 432.31,-60.78 613.61,-49.08 1035.4,1.41 503.01,60.22 2548.56,1476.6 3414.29,1476.6 1443.21,0 1907.62,-607.92 2752.58,-689.2 633.01,-60.89 1496.99,66.81 1912.79,-539.57 317.72,-463.35 1171.53,-557.17 1706.65,-499.92 327.79,35.06 1653.48,712.12 2280.9,1093.31l0 1431.46 -16255.99 0.18 0 -1407.37z"/>
   <path class="fil8 str4" d="M4847.42 2775.57c360.79,388.63 2258.52,2716.15 3262.79,2737.86 602.78,13.01 2803.94,-1981.31 2802.28,-1981.24 -47.91,2.11 -102.34,39.95 -171.45,75.92 -605.12,315.03 -2357.73,1519.52 -2766.08,1546.88 -237.01,15.89 -862.53,-456.27 -1041.41,-605.4 -395.47,-329.71 -795.18,-665.63 -1181.99,-1006.19 -311.8,-274.53 -630.98,-604.16 -799.6,-749.68 -7.13,-6.15 -14,-11.99 -20.59,-17.47 -28.7,-23.88 -53.4,-50.52 -91.33,-57.92 -26.93,-5.27 -25.43,21.91 7.38,57.24z"/>
   <path class="fil8 str4" d="M13359.33 2037.35c8.06,28.35 -1174.28,1409.34 -1502.11,1410.01 540.82,-444.78 865.49,-957.4 1406.05,-1353.84 52.11,-38.21 96.06,-56.17 96.06,-56.17z"/>
  </g>
 </g>
 <g id="Grass">
  <metadata id="CorelCorpID_3Corel-Layer"/>
  <g id="_1863370478368">
   <path class="fil9 str5" d="M-0.01 6163.08c1698.36,-626.99 4542.93,206.76 5747.3,292.21 2631.85,186.75 5436.09,-526.82 7416.26,-678.28 461.11,-35.27 2225.91,130.5 3092.43,388.03l0 976.14 -16255.99 0 0 -978.1z"/>
   <path class="fil9 str5" d="M10155.62 5787.28c19.48,0 4.4,105.92 4.4,229.92 0,124 -15.79,224.53 -35.27,224.53 -51.99,0 -42.72,-454.45 30.87,-454.45z"/>
   <path class="fil9 str5" d="M5050.42 6068.05c-19.45,-1.06 -10.43,105.52 -17.5,229.33 -7.07,123.81 2.96,225.04 22.41,226.1 51.91,2.84 68.56,-451.4 -4.91,-455.43z"/>
   <path class="fil9 str5" d="M10350.17 5679.93c21.37,0 4.82,116.2 4.82,252.24 0,136.05 -17.32,246.33 -38.69,246.33 -57.04,0 -46.87,-498.57 33.87,-498.57z"/>
   <path class="fil9 str5" d="M4862.29 5950.24c-21.34,-1.17 -11.44,115.76 -19.2,251.59 -7.75,135.83 3.26,246.89 24.59,248.05 56.95,3.12 75.22,-495.23 -5.39,-499.64z"/>
   <path class="fil9 str5" d="M10022.03 5659.51c-24.49,0 -5.53,133.19 -5.53,289.11 0,155.92 19.85,282.31 44.35,282.31 65.37,0 53.71,-571.42 -38.82,-571.42z"/>
   <path class="fil9 str5" d="M5191.08 5947.79c24.45,1.34 -2.07,133.28 -10.96,288.96 -8.89,155.67 -35.92,280.79 -60.37,279.45 -65.27,-3.57 -21.06,-573.47 71.33,-568.41z"/>
   <path class="fil9 str5" d="M10410.69 5763.74c18.43,0 4.16,100.22 4.16,217.56 0,117.34 -14.94,212.46 -33.37,212.46 -49.19,0 -40.42,-430.02 29.21,-430.02z"/>
   <path class="fil9 str5" d="M4797.08 6030.61c-18.4,-1 -9.87,99.84 -16.56,217 -6.68,117.15 2.81,212.94 21.21,213.94 49.12,2.69 64.88,-427.13 -4.65,-430.94z"/>
   <path class="fil9 str5" d="M4304.3 5914.03c-18.4,-1.01 -9.87,99.84 -16.56,217 -6.68,117.15 2.81,212.94 21.21,213.94 49.12,2.69 64.88,-427.13 -4.65,-430.94z"/>
   <path class="fil9 str5" d="M3575.35 5755.13c-18.4,-1.01 -9.87,99.84 -16.56,216.99 -6.68,117.16 2.81,212.94 21.21,213.95 49.12,2.69 64.88,-427.13 -4.65,-430.94z"/>
   <ellipse class="fil9 str5" cx="10678.73" cy="5990.38" rx="17.78" ry="129"/>
   <ellipse class="fil9 str5" transform="matrix(-0.908577 -0.0497378 -0.0582518 1.02026 5595.99 6492.08)" rx="20.39" ry="131.74"/>
   <ellipse class="fil9 str5" transform="matrix(-0.908577 -0.0497378 -0.0582518 1.02026 5428.6 6361.96)" rx="20.39" ry="131.74"/>
   <ellipse class="fil9 str5" cx="10714.52" cy="5954.27" rx="17.78" ry="150.29"/>
   <ellipse class="fil9 str5" transform="matrix(-0.908577 -0.0497378 -0.0582518 1.02026 5543.11 6388.83)" rx="20.39" ry="131.74"/>
   <ellipse class="fil9 str5" transform="matrix(-0.870636 -0.0476609 -0.0558193 0.977655 3647.62 6037.74)" rx="20.39" ry="131.74"/>
   <ellipse class="fil9 str5" transform="matrix(-0.870636 -0.0476609 -0.0558193 0.977655 3714.99 6074.33)" rx="20.39" ry="131.74"/>
   <ellipse class="fil9 str5" transform="matrix(0.867666 0.0849817 -0.0995285 0.974319 10763.6 6010.22)" rx="20.39" ry="131.74"/>
   <ellipse class="fil9 str5" transform="matrix(-0.908577 -0.0497378 -0.0582518 1.02026 5477.2 6454.11)" rx="20.39" ry="131.74"/>
   <ellipse class="fil9 str5" cx="9962.2" cy="6122.35" rx="17.78" ry="129"/>
   <ellipse class="fil9 str5" transform="matrix(-0.908577 -0.0497378 -0.0582518 1.02026 5224.91 6361.89)" rx="20.39" ry="131.74"/>
   <ellipse class="fil9 str5" cx="9902.01" cy="6134.02" rx="17.78" ry="129"/>
   <ellipse class="fil9 str5" transform="matrix(-0.908577 -0.0497378 -0.0582518 1.02026 5287.31 6419.47)" rx="20.39" ry="131.74"/>
   <ellipse class="fil9 str5" transform="matrix(0.852544 -0.179342 0.210041 0.957338 9845.84 6110.88)" rx="20.39" ry="131.74"/>
   <ellipse class="fil9 str5" transform="matrix(-0.908577 -0.0497378 -0.0582518 1.02026 5334.83 6313.75)" rx="20.39" ry="131.74"/>
  </g>
 </g>
 <g id="Lake">
  <metadata id="CorelCorpID_4Corel-Layer"/>
  <g id="_1863370524976">
   <polygon class="fil10 str6" points="-0.01,9144 16255.98,9144 16255.98,7133.52 -0.01,7133.52 "/>
   <line class="fil11 str7" x1="11270.16" y1="7621.04" x2="14302.8" y2= "7621.04" />
   <line class="fil11 str8" x1="3348.37" y1="8256.83" x2="5296.09" y2= "8256.83" />
   <line class="fil11 str7" x1="10432.09" y1="7373.79" x2="10919.02" y2= "7373.79" />
   <line class="fil11 str8" x1="6507.46" y1="8786.65" x2="7624.83" y2= "8786.65" />
   <line class="fil11 str8" x1="10129.58" y1="8415.82" x2="11334.09" y2= "8415.82" />
   <line class="fil11 str8" x1="9914.27" y1="8601.26" x2="10175.67" y2= "8601.26" />
   <line class="fil11 str8" x1="8937.11" y1="8623.29" x2="9385.68" y2= "8623.29" />
   <line class="fil11 str8" x1="14115.07" y1="8362.86" x2="14376.47" y2= "8362.86" />
   <line class="fil11 str8" x1="12427.38" y1="7833.04" x2="12909.3" y2= "7833.04" />
   <line class="fil11 str8" x1="8589.24" y1="7744.71" x2="8876.27" y2= "7744.71" />
   <line class="fil11 str8" x1="8721.5" y1="8009.57" x2="10117.5" y2= "8009.57" />
   <line class="fil11 str8" x1="7536.77" y1="7479.78" x2="8932.77" y2= "7479.78" />
   <line class="fil11 str8" x1="4106.82" y1="8883.81" x2="5502.82" y2= "8883.81" />
   <line class="fil11 str8" x1="12797.91" y1="7356.16" x2="14193.91" y2= "7356.16" />
   <line class="fil11 str8" x1="2100.18" y1="7921.32" x2="3496.18" y2= "7921.32" />
   <line class="fil11 str8" x1="197.64" y1="7532.8" x2="1593.65" y2= "7532.8" />
   <line class="fil11 str8" x1="7932.1" y1="8380.45" x2="7132.51" y2= "8380.45" />
   <line class="fil11 str8" x1="6040.06" y1="8663.02" x2="5573.63" y2= "8663.02" />
   <line class="fil11 str8" x1="14388.81" y1="8592.38" x2="15362.67" y2= "8592.38" />
   <line class="fil11 str8" x1="11537.43" y1="8795.53" x2="12818.81" y2= "8795.53" />
   <line class="fil11 str8" x1="1851.69" y1="8592.38" x2="3440.6" y2= "8592.38" />
   <line class="fil11 str8" x1="6048.72" y1="7497.42" x2="5361.03" y2= "7497.42" />
   <line class="fil11 str8" x1="6809.72" y1="7974.26" x2="6283.02" y2= "7974.26" />
   <line class="fil11 str8" x1="3087.53" y1="7603.38" x2="2481" y2= "7603.38" />
   <line class="fil11 str8" x1="1273.23" y1="8186.24" x2="666.7" y2= "8186.24" />
  </g>
 </g>
 <g id="Shine">
  <metadata id="CorelCorpID_5Corel-Layer"/>
  <g id="_1863370512304">
   <path class="fil12 str9" d="M7780.79 7133.52c-14.08,0.45 -19.21,25.38 -12.87,46.18 14.95,49.15 60.55,126.82 -36.99,174.83 -306.29,150.79 183.84,189.6 -164.02,259.91 -401.67,81.22 36.52,175.22 -65.5,266.63 -53.94,48.29 -445.97,33.88 -363.46,198.82 24.09,48.14 390.34,104.85 205.7,224.8 -132.25,85.91 -654.81,111.69 -659.76,251.04 -4.89,138.79 556.09,166.13 325.56,260.46 -17.53,7.17 -544.34,-26.18 -447.26,140.91 20.31,34.98 147.84,122.11 256.04,186.9l1932.34 0c259.21,-60.23 578.06,-107.78 578.06,-200.35 0,-111.57 -691.86,-119.76 -426.05,-234.14 18.81,-8.1 321.74,-37.36 407.36,-79.55 563.24,-277.53 -879.28,-204.85 -898.93,-390.99 -31.19,-295.43 604.49,-202.48 402.96,-397.59 -90.28,-87.4 -740.68,12.17 -547.16,-142.29 60.31,-48.14 448.63,-137.18 156.48,-227.71 -224.81,-69.66 -101.48,-222.87 -39.02,-244.31 46.5,-15.96 36.57,-93.55 -50.9,-93.55l-181.75 0c-126,0 -236.96,-4.29 -370.83,0z"/>
   <path class="fil12 str9" d="M7329.85 7399.74c-19.12,-6.49 -285.43,-76.83 -157.56,3.79 19.96,12.58 229.69,47.27 157.56,-3.79z"/>
   <path class="fil12 str9" d="M10006.86 8716.68c9.2,-12.92 288.12,39.21 -31.51,103.82 -164.44,33.24 -746.4,12.81 -368.19,-33.36 49.93,-6.09 406.42,-79.9 399.7,-70.46z"/>
   <path class="fil12 str9" d="M6292.91 8208.68c-8.19,-11.5 -256.37,34.89 28.03,92.37 146.32,29.59 664.16,11.41 327.63,-29.67 -44.44,-5.43 -361.64,-71.1 -355.66,-62.7z"/>
   <path class="fil12 str9" d="M9486.71 8238.05c243.02,0 -119.69,95.41 -119.69,59.9 0,-28.15 95.47,-59.9 119.69,-59.9z"/>
   <path class="fil12 str9" d="M8686.52 8102.66c-73.41,5 -64.35,94.11 93.94,1.37 35.53,-20.82 -93.94,-1.37 -93.94,-1.37z"/>
  </g>
 </g>
 <g id="Foreground1">
  <metadata id="CorelCorpID_6Corel-Layer"/>
  <g id="_1863370649776">
   <path class="fil13 str10" d="M4434.93 7903.13c10.09,7.62 -7.07,62.43 -48.46,116.24 -14.8,19.25 -30.7,35.76 -45.48,48.68l-33.98 -16.7c12.26,-16.95 28.17,-37.3 45.02,-59.21 41.39,-53.81 72.82,-96.65 82.9,-89.01z"/>
   <path class="fil13 str10" d="M4112.65 7946.4c-6.92,-32.07 -9.89,-66.86 -18.3,-94.91 -12.03,-40.1 -13.91,-61.96 -8.61,-64.58 6.95,-3.41 26.25,26.01 51.33,90.36l1.01 -5.01c18.98,-95.23 21.48,-183.09 35.11,-181.97 10.86,0.9 24.87,69 20.48,144.85 23.56,-66.55 54,-114.95 104.64,-165.36 48.22,-47.98 98.94,-79.81 109.77,-74.38 18,9.03 -91.31,127.07 -130.28,203.57 -38.97,76.51 -40.05,87.91 -55.77,127.76 6.62,-6.66 -4.07,0.27 21.39,-18.67 9.55,-7.12 26.25,-19.84 41.9,-28.14 26.03,-13.78 51.78,-21.54 55.56,-16.57 4.37,5.77 -82.63,84.24 -130.68,119.7l-97.55 -36.65z"/>
   <path class="fil13 str11" d="M5449.96 8128.69c113.41,5.24 216.36,88.24 160.83,213.34 -62.31,140.35 -248.12,78.03 -447.62,34.97 -177.32,-38.28 -367.12,-49.09 -466.11,-75.18 -117.48,-30.95 -26.16,-160.9 74.06,-106.49 -11.57,-92.24 77.06,-189.18 210.75,-127.98 43.46,-357.83 555.95,-311.68 473.35,42.67 -1.48,6.35 -3.25,12.58 -5.26,18.67z"/>
   <g>
    <path class="fil13 str10" d="M3763.5 6641.54c93.82,183.52 48.51,943.39 32.82,1186.34 -5.24,81.19 -18.32,23.84 -18.76,76.56l144.69 17.26c21.73,-228.16 13.26,-945.04 -21.07,-1176.59 -13.87,-93.55 -50.81,-105.69 -95.93,-87 -2.42,6.4 -42.1,-17.23 -41.75,-16.57z"/>
    <path class="fil13 str12" d="M3885.85 7127.64c0.5,-5.77 286.78,-333.85 307.79,-354 48.06,-46.05 87.73,-18.26 43.55,30.89 -21,23.34 -239.47,337.95 -319,372.4 -22.8,9.87 -36.31,-3.46 -32.34,-49.29z"/>
    <path class="fil13 str11" d="M3527.51 6399.11c-76.21,25.26 -126.67,64.66 -148.05,125.82 -64.71,185.15 195.54,275.42 404.03,205.73 54.17,32.65 161.04,79.51 243.73,92.12 82.69,12.6 202.62,25.57 270.35,2.93 177.99,251.2 537.18,124.17 505.52,-118.83 -10.06,-77.18 -43.2,-175.42 -178.76,-271.57 157.39,-202.15 -165.73,-330.65 -344.72,-309.07 51.66,-246.7 -111.77,-364.43 -343.73,-305.68 -381.29,96.58 -152.19,431.9 -153.65,432.24 -94.54,-159.74 -423.52,-30.11 -254.72,146.31z"/>
   </g>
   <g>
    <path class="fil13 str10" d="M11533.34 7138.44c-12.77,9.15 -31.69,264.6 -17.31,541.12 12.07,232.24 59.1,450.76 102.61,651.29 20,92.14 39.47,148.1 51.26,237.66l186.78 -1.66c-173.47,-415.35 -246.71,-731.81 -255.45,-1178.92 -3.04,-155.77 7.04,-262.48 6.74,-262.88 -30.39,-38.07 -62.94,5 -74.63,13.39z"/>
    <path class="fil13 str10" d="M11197.99 7402.19c0.34,41.19 285.37,224.36 334.92,241.87 24.24,8.57 30.09,-11.5 20.75,-35.17 -14.97,-37.91 -65.93,-66.91 -123.36,-105.28l-152.31 -106.18c-16.19,-11.77 -28.77,-253.54 -31.4,-257.47 -7.54,-11.31 -37.9,-11.38 -50.79,7.04 -0.04,0.05 1.99,230.65 2.19,255.19z"/>
    <path class="fil13 str10" d="M11947.89 7668.96c-3.85,17.95 -77.3,64.23 -141.7,112.56 -79.28,59.49 -158.44,122.83 -185.76,132.46 -11.22,3.96 -21.85,-4.71 -29.07,-17.51 -8.36,-14.81 -12.19,-35.16 -7.19,-47.84 14.94,-37.89 62.76,-54.33 117.64,-96.21l171.77 -131.14c15.9,-12.13 107.78,-447.68 110.36,-451.57 7.49,-11.26 73.48,-10.58 68.79,11.26l-104.84 487.99z"/>
    <path class="fil13 str11" d="M11769.18 6351.7c0.17,-3.79 0.52,-7.6 0.28,-11.4 -27.96,-449.6 -957.18,-382.51 -638.11,151.39 -89.46,-0.1 -175.81,17.15 -224.78,80.52 -37.27,48.25 -68.81,132.52 29.58,202.1 -273.59,99.49 -206.72,413.35 102.86,392.06 95.52,-6.57 223.88,-25.71 269.46,-85.34 75.07,72.98 176.56,104.1 320.19,104.1 118.6,0 215.12,-25.88 289.05,-68.24 25.97,37.46 100.36,64.5 188.1,64.5 91.06,0 183.13,-30.35 261.33,-75.06 267.32,-152.85 336.13,-622.43 -250.57,-554.82 79.19,-33.11 40.59,-138.11 -52.14,-199.49 -82.59,-54.66 -210.86,-73.16 -295.25,-0.32z"/>
   </g>
   <path class="fil13 str10" d="M10863.15 8368.86c-8.62,-3.81 -38.58,26.86 -59.23,72.86 -3.63,8.08 -6.57,16.51 -8.93,24.95 -5.42,-39.73 -11.2,-85.5 -12.96,-129.82 -4.63,-116.22 18.71,-224.55 -0.17,-223.81 -18.88,0.74 -63.7,111.23 -59.07,227.44 0.85,21.36 3.36,42.98 6.99,64.04 -31.18,-64.09 -73.86,-113.5 -83.16,-109.32 -11.66,5.24 26.58,78.3 54.71,164.86 8.51,26.18 16.22,50.47 23.1,71.48l85.88 -11.6c23.03,-50.29 59.16,-148.29 52.84,-151.08z"/>
   <g>
    <path class="fil13 str10" d="M10171.82 8220.78c-19.11,8.51 -12.22,103.07 34.02,205.02 16.54,36.47 35.88,68.95 54.78,95.24l60.97 -14.25c-13.31,-31.82 -31.22,-70.47 -50.05,-111.99 -46.25,-101.95 -80.61,-182.56 -99.72,-174.02z"/>
    <path class="fil13 str10" d="M10319.91 8229.53c18.66,-0.49 45.46,110.7 47.24,178.28 1.78,67.58 0.15,69.19 -4.78,97.57l-51.29 11.21c-1.71,-30.64 -2.39,-68.55 -3.44,-109.1 -2.59,-99.6 -6.39,-177.47 12.27,-177.96z"/>
   </g>
   <path class="fil13 str11" d="M5591.65 8351.45l0.01 0.01c109.97,32.16 222.6,66.61 326.42,106.75 352.51,105.12 873.16,248.62 943.48,245.61 411.26,-17.59 995.81,-326.05 1331.74,-187.48 218.19,90 573.63,93.9 810.63,45.61 115.88,-23.62 1146.87,-123.22 1615.02,-46.91 190.29,-6.52 363.14,-13.89 493.44,-35.09 197.59,-32.14 1847.52,-535.92 1925.96,-796 192.77,-639.27 593.74,-734.52 1008.2,-1011.81 115.4,-77.2 1168.74,-672.19 1188.95,-768.15 84.3,-400.13 745.71,-89.61 1020.47,-1.13l0.01 3241.14 -16255.99 0 0 -3247.8c191.52,10.42 466.08,-120.19 511.13,135.8 2.66,15.11 806.15,1486.32 1042.44,1476.25 106.21,-4.53 400.05,-204.6 725.9,-251.77 372.91,-53.99 776.89,51.27 802.45,176.77 60.81,298.51 537.95,371.67 899.28,438.72 114.71,21.29 707.43,400.01 805.17,406.02 126.82,7.79 424.99,-36.96 693.18,40.93 36.74,10.67 74.26,21.47 112.11,32.54l0 -0.01z"/>
  </g>
 </g>
 <g id="Foreground2">
  <metadata id="CorelCorpID_7Corel-Layer"/>
  <g id="_1863370636768">
   <g>
    <g>
     <g>
      <path class="fil14 str13" d="M2064.01 6505.14c16.73,14.34 12.02,373.95 -41.82,759.03 -45.21,323.41 -137.61,623.44 -222.9,898.73 -39.2,126.48 -73.24,202.44 -100.66,326.29l-260.9 -24.74c293.18,-560.18 434.17,-994.08 500.93,-1618.46 23.26,-217.54 22.18,-368.02 22.66,-368.54 47.13,-49.61 87.37,14.55 102.69,27.69z"/>
      <path class="fil14 str13" d="M2500.63 6914.35c-5.5,57.58 -426.31,279.58 -497.71,298.13 -34.93,9.07 -40.65,-19.7 -24.71,-51.69 25.55,-51.23 100.32,-85.68 185.29,-132.46l225.88 -130.24c24.07,-14.52 71.15,-351.21 75.3,-356.39 11.92,-14.92 54.38,-11.37 70.15,15.95 0.04,0.07 -30.92,322.39 -34.2,356.7z"/>
      <path class="fil14 str13" d="M1419.77 7197.49c3.19,25.56 100.23,99.13 184.36,174.47 103.57,92.73 206.5,190.83 243.52,207.59 15.2,6.88 31.11,-3.97 42.76,-21 13.51,-19.72 21.33,-47.72 15.9,-66.07 -16.27,-54.79 -81.12,-83.53 -152.72,-148.71l-224.12 -204.06c-20.76,-18.88 -96.06,-639.18 -99.19,-644.92 -9.1,-16.66 -101.43,-23.63 -97.54,7.48l87.03 695.22z"/>
      <path class="fil14 str14" d="M1830.3 5376.29c0.23,-5.32 0.2,-10.68 1,-15.97 93.94,-625.56 1384.75,-420.16 873.57,288.38 125.08,10.6 243.67,45.1 304.4,139.62 46.22,71.97 80.03,193.64 -66,279.16 370.32,172.01 238.55,603.03 -191.63,536.08 -132.73,-20.66 -309.82,-62.85 -366.27,-151.73 -113.86,93.08 -259.53,124.43 -460.31,107.18 -165.8,-14.23 -297.57,-62.04 -395.75,-130.16 -40.88,49.28 -148.17,78.17 -270.82,67.64 -127.3,-10.93 -252.3,-64.44 -356.17,-136.38 -355.04,-245.9 -393.95,-911.04 417.98,-746.02 -106.67,-55.82 -39.89,-198.06 97.23,-272.79 122.12,-66.55 303.69,-77.02 412.77,34.99z"/>
     </g>
     <path class="fil14 str13" d="M2262.67 8578.32c41.39,-42.9 79.3,-93.72 119.13,-129.03 56.94,-50.45 80.79,-82.38 75.13,-91.43 -7.43,-11.83 -65.33,15.27 -165.61,90.77l3.25 -8.67c62.03,-164.8 142.38,-302.63 120.32,-313.78 -17.58,-8.89 -104.41,82.85 -170.32,203.96 27.49,-124.9 27.01,-228.32 -2.66,-353.94 -28.25,-119.6 -75.83,-216.65 -97.71,-218.52 -36.37,-3.1 18.82,282.3 5.5,437.12 -13.33,154.82 -22.58,173.43 -36.57,249.73 -3.81,-16.53 6.01,4.27 -15.03,-49.01 -7.89,-20.02 -21.4,-55.42 -37.55,-83.01 -26.87,-45.87 -59.07,-82.2 -69.65,-78.12 -12.27,4.77 46.48,208.06 86.48,308.18l185.29 35.75z"/>
     <path class="fil14 str13" d="M2636.15 8262.88c20.54,11.37 3.56,116.56 -58.18,226.23 -22.07,39.23 -46.89,73.71 -70.62,101.32l-66.81 -21.84c18.01,-34.33 41.84,-75.88 66.98,-120.53 61.74,-109.67 108.09,-196.58 128.63,-185.18z"/>
    </g>
    <path class="fil14 str14" d="M12095.86 8056.26c-154.13,2.45 -297.3,110.9 -227.18,283.07 78.67,193.16 339.76,162.5 612.27,112.25 242.24,-44.67 479.43,-55.03 616.26,-79.63 201.49,-36.2 137.53,-317.59 -92.74,-192.71 19.57,-124.78 -86.83,-264.58 -270.81,-187 -45.92,-508.96 -781.95,-424.16 -637.8,64.02z"/>
   </g>
   <g>
    <g>
     <path class="fil14 str13" d="M14666.09 6219.71c21.66,10.5 117.27,390.97 168.22,811.83 42.79,353.46 29.28,695.26 16.35,1009.01 -5.95,144.16 -20.6,233.62 -14.87,371.77l-282.01 45.78c152.44,-671.41 179.74,-1167.74 75.49,-1844.48 -36.33,-235.77 -79.56,-394.15 -79.2,-394.83 35.82,-65.28 96.19,-8.72 116.02,0.92z"/>
     <path class="fil14 str13" d="M14180.47 7127.17c10.51,26.07 133.41,76.91 243.19,133.17 135.13,69.25 271.1,144.34 314.82,151.81 17.96,3.07 31.7,-12.76 39.22,-33.92 8.73,-24.51 9.14,-56.19 -1.72,-74.04 -32.48,-53.29 -108.89,-65.73 -202.62,-114.73l-293.39 -153.43c-27.16,-14.19 -280.07,-647.49 -284.97,-652.68 -14.26,-15.06 -113.56,3.02 -100.76,34.75l286.23 709.07z"/>
     <path class="fil14 str14" d="M14731.95 5287.65c269.89,-86.16 525.13,94.03 402.36,338.77 328.15,-75.31 601.3,37.83 566.21,320.77 -52.23,421.11 -507.88,658.22 -863.49,432.37 -116.09,76.8 -206.81,105.01 -414.25,140.58 -207.45,35.56 -405.66,22.79 -582.74,-85.18 -112.92,44.41 -237.72,87.45 -354.27,72.35 -386.49,-50.1 -706.55,-655.32 -209.3,-824.82 -141.26,-197.71 -173.72,-479.45 51.34,-620.18 139.29,-87.11 330,-34.08 463.5,77.2 81.52,-445.79 912.91,-800.3 990.82,-150.24 13.22,110.3 5.46,207.27 -50.18,298.38z"/>
    </g>
    <path class="fil14 str13" d="M14786.01 7869.34c17.42,-0.71 47.78,72.23 51.65,165.2 0.68,16.33 -0.06,32.8 -1.81,48.91 36.59,-64.59 77.95,-139.32 111.42,-214.27 87.77,-196.52 122.1,-398.4 154,-384.37 31.91,14.03 32.97,234.14 -54.79,430.66 -16.12,36.11 -35.29,71.55 -55.99,105.28 97.54,-89.02 204.77,-145.06 217.86,-131.59 16.43,16.88 -99.41,116.55 -207.17,246.24 -32.59,39.22 -62.5,75.73 -88.74,107.18l-139.47 -77.98c-5.01,-101.95 0.27,-294.74 13.04,-295.26z"/>
   </g>
   <g>
    <g>
     <path class="fil14 str13" d="M9740.05 8341.53c27.22,1.85 61.84,120.49 51.77,265.8 -3.59,51.98 -12.43,100.33 -23.55,140.92l-80.96 9.9c1.78,-44.84 6.06,-100.1 10.16,-159.27 10.08,-145.32 15.36,-259.22 42.58,-257.35z"/>
     <path class="fil14 str13" d="M9563.17 8418.56c-23.02,7.77 -5.14,155.65 23.45,239.04 28.59,83.38 31.32,84.62 50.26,117.09l67.74 -9.26c-11.86,-38.22 -28.29,-84.85 -45.46,-134.88 -42.17,-122.87 -72.97,-219.75 -95.99,-211.99z"/>
    </g>
    <path class="fil14 str13" d="M9358.33 8469.52c-18.4,19.04 74.06,153.64 144.16,220.28 70.1,66.64 73.37,66.48 108.25,88.52l61.04 -42.88c-30.92,-31.16 -70.54,-68.2 -112.62,-108.17 -103.34,-98.17 -182.44,-176.8 -200.83,-157.75z"/>
   </g>
   <path class="fil14 str14" d="M-0.01 7881.75c37.24,-5.45 90.6,-4.94 125.24,-3.26 254.44,12.38 544.37,133.71 763.77,291.84 957.99,690.5 3037.27,254.32 4515.47,427.17 257.91,30.16 563.65,146.93 732.09,209.21 366.15,135.4 1378.88,-26.8 2261.29,-6.08 1137.33,26.7 2798.45,-203.13 4404.66,-530.57 466.83,-95.16 1062.48,3.8 1513.72,-29.62 726.63,-53.82 890.96,-194.69 1427.77,-295.57 147.12,-27.65 348.22,-51.4 511.97,-63.12l0 1262.25 -16255.98 0 0 -1262.25z"/>
  </g>
 </g>
 <g id="additives">
  <metadata id="CorelCorpID_8Corel-Layer"/>
  <path class="fil8" d="M4313.15 1960.08c565.67,-221.27 268.95,-108.51 890.81,-336.68 -594.19,293.69 -306.15,159.13 -862.74,406.63 -19.48,7.68 -41.55,-1.74 -49.3,-21.06 -7.75,-19.31 1.75,-41.21 21.23,-48.89z"/>
  <g>
   <path class="fil15" d="M6039.59 3345.94l1.94 -5.02 0 0 6.34 2.51 5.98 2.55 5.61 2.59 5.28 2.64 4.97 2.67 4.67 2.72 4.4 2.76 4.13 2.8 3.9 2.83 3.68 2.88 3.48 2.92 3.29 2.94 3.14 2.99 2.99 3.02 2.87 3.05 2.77 3.08 2.68 3.11 2.61 3.14 2.58 3.16 2.56 3.2 2.54 3.22 2.57 3.24 2.6 3.28 2.65 3.29 2.74 3.33 2.84 3.35 2.95 3.38 3.09 3.41 3.25 3.44 3.44 3.48 3.63 3.5 3.85 3.54 -3.62 3.98 -3.95 -3.62 -3.73 -3.6 -3.52 -3.56 -3.33 -3.52 -3.17 -3.49 -3.01 -3.46 -2.88 -3.41 -2.78 -3.37 -2.69 -3.33 -2.62 -3.3 -2.57 -3.24 -2.54 -3.22 -2.52 -3.16 -2.54 -3.12 -2.57 -3.08 -2.62 -3.03 -2.69 -3 -2.77 -2.95 -2.89 -2.92 -3.02 -2.87 -3.17 -2.84 -3.34 -2.8 -3.54 -2.76 -3.74 -2.73 -3.99 -2.7 -4.24 -2.66 -4.51 -2.62 -4.81 -2.59 -5.14 -2.56 -5.47 -2.53 -5.82 -2.49 -6.22 -2.45 0 0zm-150.19 -15.82l3.58 -4.02 0.02 0.02 -1.75 -0.69 0.6 -0.06 1.08 -0.12 1.49 -0.18 1.89 -0.21 2.26 -0.24 2.63 -0.27 2.96 -0.27 3.3 -0.28 3.61 -0.26 3.91 -0.23 4.2 -0.21 4.46 -0.17 4.73 -0.12 4.97 -0.05 5.2 0.01 5.42 0.1 5.61 0.19 5.81 0.28 5.98 0.4 6.14 0.53 6.28 0.65 6.41 0.79 6.54 0.95 6.64 1.11 6.72 1.28 6.8 1.46 6.86 1.66 6.91 1.86 6.95 2.07 6.95 2.3 6.97 2.52 -1.94 5.02 -6.81 -2.48 -6.81 -2.24 -6.79 -2.03 -6.77 -1.82 -6.74 -1.62 -6.66 -1.44 -6.6 -1.26 -6.52 -1.09 -6.42 -0.93 -6.31 -0.77 -6.18 -0.65 -6.04 -0.51 -5.88 -0.4 -5.71 -0.28 -5.53 -0.19 -5.34 -0.1 -5.12 -0.01 -4.89 0.05 -4.65 0.12 -4.4 0.17 -4.14 0.21 -3.85 0.23 -3.55 0.26 -3.24 0.26 -2.92 0.27 -2.57 0.27 -2.24 0.24 -1.87 0.21 -1.49 0.18 -1.12 0.12 -0.78 0.08 -2.27 -0.69 0.02 0.02zm3.58 -4.02l0.02 0.02 -0.15 -0.14 0.13 0.12zm283.51 69.05l2.92 4.52 -3.98 -1.29 -7.86 -18.07 -8.71 -16.34 -9.47 -14.66 -10.17 -13.07 -10.76 -11.55 -11.31 -10.1 -11.75 -8.73 -12.14 -7.44 -12.43 -6.2 -12.67 -5.05 -12.82 -3.97 -12.88 -2.93 -12.89 -2 -12.79 -1.1 -12.63 -0.29 -12.38 0.47 -12.06 1.14 -11.64 1.75 -11.15 2.3 -10.58 2.77 -9.92 3.16 -9.19 3.49 -8.35 3.75 -7.45 3.92 -6.44 4.03 -5.36 4.04 -4.18 3.94 -2.92 3.72 -1.62 3.33 -0.42 2.78 0.63 2.33 1.86 2.3 -3.58 4.02 -3.08 -3.84 -1.23 -4.53 0.66 -4.68 2.2 -4.57 3.5 -4.48 4.68 -4.42 5.78 -4.36 6.82 -4.25 7.77 -4.1 8.65 -3.89 9.47 -3.59 10.2 -3.26 10.86 -2.83 11.43 -2.36 11.94 -1.79 12.36 -1.18 12.7 -0.47 12.97 0.29 13.15 1.14 13.25 2.04 13.28 3.03 13.22 4.09 13.07 5.21 12.85 6.42 12.54 7.68 12.15 9.03 11.67 10.42 11.1 11.91 10.45 13.45 9.73 15.04 8.91 16.72 8.02 18.45 -3.98 -1.29zm2.92 4.52l-2.78 1.78 -1.2 -3.07 3.98 1.29zm286.55 117.67l-4.36 -3.18 0 0 2.2 -3.97 1.31 -4.7 0.39 -5.41 -0.53 -6.05 -1.48 -6.63 -2.38 -7.07 -3.29 -7.45 -4.16 -7.73 -5 -7.93 -5.79 -8.04 -6.58 -8.08 -7.3 -8.03 -8.02 -7.91 -8.67 -7.7 -9.32 -7.43 -9.92 -7.08 -10.48 -6.64 -11.02 -6.13 -11.52 -5.55 -11.98 -4.89 -12.42 -4.16 -12.81 -3.34 -13.19 -2.47 -13.53 -1.51 -13.82 -0.48 -14.11 0.63 -14.35 1.81 -14.57 3.06 -14.75 4.41 -14.91 5.81 -15.04 7.29 -15.15 8.88 -2.92 -4.52 15.49 -9.08 15.44 -7.49 15.31 -5.97 15.19 -4.53 15.01 -3.16 14.79 -1.85 14.53 -0.65 14.26 0.48 13.93 1.57 13.57 2.53 13.19 3.44 12.76 4.28 12.3 5.01 11.8 5.69 11.3 6.29 10.74 6.8 10.16 7.24 9.54 7.61 8.89 7.9 8.22 8.11 7.5 8.25 6.76 8.3 5.99 8.32 5.18 8.21 4.34 8.09 3.47 7.85 2.56 7.57 1.6 7.23 0.61 6.83 -0.47 6.37 -1.63 5.82 -2.86 5.13 0 0zm-123.76 -67.02l1.92 -5.02 0 0 6.04 2.37 5.95 2.51 5.85 2.64 5.77 2.74 5.64 2.84 5.56 2.91 5.43 2.97 5.31 3.02 5.19 3.06 5.05 3.06 4.91 3.08 4.77 3.04 4.62 3.03 4.46 2.97 4.29 2.91 4.13 2.84 3.95 2.73 3.78 2.64 3.58 2.5 3.38 2.36 3.18 2.21 2.98 2.03 2.75 1.84 2.52 1.64 2.28 1.41 2.03 1.16 1.74 0.9 1.43 0.62 1.04 0.32 0.5 0.08 -0.16 0.05 -0.47 0.38 4.36 3.18 -1.71 1.36 -1.94 0.39 -1.78 -0.2 -1.76 -0.54 -1.85 -0.8 -2.02 -1.04 -2.19 -1.26 -2.42 -1.49 -2.6 -1.68 -2.81 -1.88 -3 -2.07 -3.2 -2.21 -3.4 -2.38 -3.58 -2.5 -3.76 -2.62 -3.93 -2.73 -4.11 -2.82 -4.27 -2.89 -4.42 -2.95 -4.58 -2.99 -4.71 -3.02 -4.87 -3.04 -4.99 -3.02 -5.11 -3.02 -5.25 -2.98 -5.35 -2.93 -5.46 -2.87 -5.56 -2.78 -5.65 -2.7 -5.75 -2.58 -5.83 -2.47 -5.9 -2.31 0 0zm-190.21 -7.4l3.62 -3.98 0.06 0.05 1.03 0.73 1.59 0.67 2.18 0.53 2.71 0.37 3.21 0.18 3.64 0.01 4.07 -0.15 4.44 -0.3 4.8 -0.4 5.13 -0.52 5.46 -0.6 5.73 -0.66 6.01 -0.7 6.25 -0.71 6.48 -0.71 6.68 -0.69 6.88 -0.65 7.04 -0.59 7.19 -0.49 7.32 -0.39 7.42 -0.26 7.51 -0.11 7.58 0.06 7.64 0.24 7.65 0.46 7.67 0.69 7.66 0.95 7.64 1.23 7.59 1.53 7.51 1.85 7.42 2.19 7.32 2.55 -1.92 5.02 -7.06 -2.47 -7.18 -2.11 -7.29 -1.79 -7.37 -1.49 -7.42 -1.19 -7.48 -0.93 -7.49 -0.67 -7.51 -0.46 -7.48 -0.24 -7.46 -0.06 -7.39 0.11 -7.32 0.26 -7.22 0.39 -7.11 0.49 -6.98 0.57 -6.82 0.65 -6.64 0.69 -6.46 0.71 -6.23 0.71 -6.01 0.7 -5.75 0.66 -5.48 0.6 -5.21 0.52 -4.88 0.42 -4.58 0.3 -4.25 0.15 -3.9 -0.01 -3.55 -0.2 -3.21 -0.43 -2.86 -0.71 -2.53 -1.07 -2.15 -1.55 0.06 0.05zm3.62 -3.98l0.06 0.05 0.07 0.06 -0.13 -0.11z"/>
   <path id="1" class="fil16" d="M6153.8 3440.93c-42.89,-38.37 -44.2,-71.24 -113.24,-97.5 -73.43,-27.93 -148.9,-14.9 -149.37,-15.32 -34.83,-30.56 206.97,-135.04 286.76,69.3 163.75,-104.44 318.66,73.85 285.83,118.34 -5.19,7.02 -56.55,-43.74 -120.62,-67.94 -76,-28.73 -175.03,6.75 -189.36,-6.88z"/>
  </g>
  <g>
   <path class="fil15" d="M6245.17 3036.78l-2.88 0.56 -2.63 -2.39 -2.67 -2.29 -2.71 -2.18 -2.73 -2.09 -2.76 -2 -2.81 -1.9 -2.84 -1.82 -2.87 -1.73 -2.92 -1.66 -2.94 -1.57 -2.99 -1.5 -3.02 -1.42 -3.06 -1.35 -3.09 -1.3 -3.14 -1.21 -3.18 -1.17 -3.21 -1.1 -3.26 -1.05 -3.3 -0.99 -3.33 -0.94 -3.39 -0.9 -3.41 -0.86 -3.46 -0.8 -3.5 -0.78 -3.55 -0.73 -3.58 -0.71 -3.63 -0.66 -3.68 -0.65 -3.72 -0.63 -3.75 -0.6 -3.8 -0.58 -3.85 -0.56 0.52 -3.56 3.87 0.58 3.82 0.58 3.79 0.6 3.74 0.63 3.7 0.65 3.67 0.68 3.62 0.71 3.59 0.75 3.54 0.78 3.52 0.82 3.47 0.86 3.43 0.92 3.39 0.96 3.36 1.01 3.32 1.07 3.29 1.12 3.24 1.19 3.22 1.25 3.17 1.32 3.14 1.39 3.1 1.46 3.07 1.54 3.02 1.61 3 1.7 2.95 1.79 2.92 1.86 2.89 1.96 2.86 2.06 2.81 2.15 2.77 2.26 2.75 2.35 2.71 2.45 -2.88 0.56 3.28 1.5zm0 0l-1.05 2.26 -1.83 -1.7 2.88 -0.56zm81.84 -75.95l0 0 -3.39 1.95 -3.36 1.95 -3.3 1.96 -3.27 1.96 -3.21 1.96 -3.17 1.98 -3.12 2 -3.07 2.01 -3.02 2.04 -2.97 2.05 -2.91 2.07 -2.86 2.1 -2.81 2.13 -2.74 2.17 -2.7 2.2 -2.63 2.24 -2.57 2.28 -2.51 2.33 -2.45 2.36 -2.39 2.42 -2.32 2.47 -2.26 2.51 -2.19 2.59 -2.13 2.63 -2.05 2.7 -1.99 2.77 -1.92 2.83 -1.86 2.91 -1.77 2.97 -1.7 3.07 -1.64 3.13 -1.56 3.21 -3.28 -1.5 1.6 -3.31 1.68 -3.23 1.76 -3.15 1.83 -3.07 1.9 -2.99 1.98 -2.91 2.05 -2.85 2.11 -2.78 2.19 -2.71 2.25 -2.65 2.32 -2.59 2.38 -2.53 2.45 -2.48 2.51 -2.42 2.57 -2.37 2.63 -2.34 2.69 -2.28 2.74 -2.24 2.8 -2.21 2.85 -2.17 2.9 -2.14 2.97 -2.11 2.99 -2.07 3.06 -2.06 3.11 -2.03 3.16 -2.02 3.19 -2 3.25 -1.98 3.29 -1.98 3.32 -1.96 3.38 -1.97 3.41 -1.97 0 0 1.8 3.12zm147.7 -16.13l0 0 -4.63 -1.3 -4.65 -1.2 -4.64 -1.1 -4.65 -0.98 -4.65 -0.88 -4.65 -0.78 -4.65 -0.65 -4.65 -0.56 -4.65 -0.43 -4.65 -0.32 -4.66 -0.21 -4.64 -0.08 -4.66 0.02 -4.64 0.15 -4.64 0.27 -4.64 0.39 -4.64 0.51 -4.63 0.63 -4.62 0.77 -4.62 0.89 -4.61 1.02 -4.61 1.14 -4.6 1.27 -4.59 1.41 -4.59 1.54 -4.58 1.68 -4.57 1.8 -4.55 1.95 -4.55 2.08 -4.55 2.23 -4.52 2.36 -4.52 2.51 -1.8 -3.12 4.6 -2.55 4.6 -2.4 4.63 -2.27 4.63 -2.12 4.65 -1.99 4.65 -1.84 4.68 -1.7 4.67 -1.58 4.69 -1.43 4.7 -1.31 4.69 -1.16 4.71 -1.04 4.72 -0.91 4.72 -0.77 4.73 -0.65 4.72 -0.53 4.74 -0.39 4.74 -0.27 4.74 -0.15 4.74 -0.04 4.74 0.1 4.74 0.21 4.75 0.32 4.73 0.45 4.75 0.56 4.73 0.67 4.73 0.78 4.73 0.9 4.73 1 4.72 1.12 4.71 1.22 4.71 1.32 0 0 -1.02 3.44zm17.08 9.01l0 0 0 -0.23 -0.02 -0.22 -0.05 -0.22 -0.07 -0.23 -0.1 -0.23 -0.15 -0.25 -0.18 -0.26 -0.23 -0.28 -0.26 -0.27 -0.32 -0.29 -0.37 -0.31 -0.4 -0.29 -0.45 -0.31 -0.49 -0.31 -0.52 -0.31 -0.55 -0.3 -0.61 -0.3 -0.63 -0.32 -0.66 -0.29 -0.71 -0.31 -0.71 -0.29 -0.77 -0.3 -0.79 -0.3 -0.8 -0.29 -0.83 -0.29 -0.86 -0.29 -0.89 -0.29 -0.9 -0.29 -0.9 -0.28 -0.93 -0.28 -0.97 -0.29 -0.96 -0.29 1.02 -3.44 0.98 0.29 0.97 0.29 0.95 0.28 0.96 0.3 0.92 0.31 0.89 0.29 0.9 0.29 0.87 0.31 0.86 0.31 0.81 0.32 0.81 0.3 0.79 0.33 0.75 0.33 0.74 0.33 0.71 0.34 0.67 0.34 0.67 0.36 0.62 0.37 0.59 0.37 0.57 0.39 0.54 0.41 0.49 0.41 0.48 0.43 0.44 0.47 0.39 0.48 0.36 0.5 0.31 0.55 0.26 0.57 0.19 0.59 0.13 0.6 0.06 0.64 -0.02 0.63 0 0 -3.6 -0.28zm-12.11 10.46l0 0 0.55 -0.09 0.56 -0.11 0.55 -0.13 0.57 -0.17 0.56 -0.17 0.52 -0.19 0.54 -0.23 0.55 -0.24 0.52 -0.25 0.51 -0.27 0.5 -0.29 0.48 -0.3 0.49 -0.33 0.47 -0.33 0.43 -0.35 0.44 -0.36 0.43 -0.38 0.38 -0.37 0.37 -0.39 0.35 -0.41 0.34 -0.41 0.32 -0.41 0.27 -0.42 0.26 -0.42 0.24 -0.43 0.21 -0.43 0.18 -0.43 0.16 -0.43 0.13 -0.42 0.1 -0.44 0.08 -0.44 0.05 -0.42 3.6 0.28 -0.07 0.66 -0.12 0.64 -0.14 0.62 -0.19 0.64 -0.22 0.61 -0.26 0.61 -0.29 0.59 -0.32 0.59 -0.34 0.56 -0.39 0.56 -0.4 0.53 -0.42 0.53 -0.45 0.49 -0.47 0.51 -0.5 0.47 -0.51 0.46 -0.52 0.44 -0.55 0.43 -0.57 0.41 -0.57 0.39 -0.6 0.38 -0.62 0.35 -0.63 0.33 -0.64 0.31 -0.63 0.28 -0.66 0.27 -0.68 0.25 -0.68 0.21 -0.67 0.19 -0.69 0.17 -0.7 0.15 -0.71 0.11 0 0 -0.5 -3.56zm0.5 3.56l0 0 0 0 0 0zm-134.07 35.73l0 0 4 -2.22 4.03 -2.15 4.06 -2.07 4.1 -1.97 4.12 -1.9 4.15 -1.83 4.18 -1.74 4.19 -1.67 4.21 -1.6 4.22 -1.53 4.25 -1.47 4.25 -1.4 4.26 -1.33 4.27 -1.28 4.26 -1.22 4.28 -1.16 4.27 -1.11 4.27 -1.05 4.26 -1.01 4.26 -0.96 4.25 -0.92 4.24 -0.87 4.21 -0.83 4.21 -0.79 4.19 -0.76 4.16 -0.72 4.15 -0.69 4.11 -0.65 4.08 -0.63 4.06 -0.62 4.03 -0.58 3.99 -0.56 0.5 3.56 -3.97 0.56 -4.01 0.58 -4.04 0.6 -4.08 0.63 -4.09 0.65 -4.11 0.69 -4.14 0.72 -4.17 0.74 -4.17 0.79 -4.19 0.83 -4.2 0.87 -4.23 0.9 -4.22 0.96 -4.22 0.99 -4.23 1.05 -4.23 1.09 -4.24 1.16 -4.22 1.2 -4.23 1.26 -4.2 1.33 -4.21 1.38 -4.19 1.45 -4.18 1.51 -4.15 1.58 -4.13 1.65 -4.12 1.72 -4.09 1.79 -4.06 1.88 -4.04 1.95 -4 2.03 -3.97 2.11 -3.94 2.2 0 0 -1.8 -3.12zm-91.1 83.71l0.01 -0.01 2.51 -2.93 2.53 -2.92 2.52 -2.92 2.54 -2.92 2.56 -2.91 2.55 -2.9 2.59 -2.9 2.59 -2.88 2.61 -2.88 2.63 -2.85 2.65 -2.84 2.68 -2.82 2.69 -2.79 2.72 -2.77 2.74 -2.75 2.78 -2.71 2.8 -2.7 2.82 -2.65 2.87 -2.63 2.89 -2.58 2.94 -2.55 2.95 -2.5 3.01 -2.47 3.04 -2.42 3.08 -2.37 3.12 -2.32 3.16 -2.28 3.22 -2.22 3.24 -2.17 3.31 -2.11 3.35 -2.05 3.4 -1.99 1.8 3.12 -3.34 1.95 -3.29 2.01 -3.23 2.07 -3.2 2.13 -3.16 2.18 -3.1 2.24 -3.08 2.3 -3.04 2.33 -3 2.38 -2.95 2.43 -2.93 2.48 -2.9 2.51 -2.85 2.56 -2.83 2.59 -2.8 2.63 -2.78 2.66 -2.74 2.69 -2.72 2.73 -2.7 2.75 -2.67 2.77 -2.66 2.8 -2.63 2.82 -2.61 2.83 -2.59 2.86 -2.59 2.86 -2.57 2.88 -2.55 2.9 -2.54 2.91 -2.54 2.9 -2.52 2.92 -2.51 2.92 -2.51 2.91 0.01 -0.01 -2.78 -2.3zm0 0l0.01 -0.01 -0.08 0.09 0.07 -0.08zm-117.38 -43.33l0 0 2.38 0.43 2.75 0.62 3.11 0.81 3.44 0.98 3.74 1.14 4.01 1.27 4.26 1.42 4.48 1.53 4.65 1.63 4.81 1.71 4.94 1.8 5.01 1.84 5.09 1.9 5.11 1.92 5.12 1.94 5.07 1.96 5.03 1.93 4.92 1.91 4.79 1.87 4.64 1.81 4.46 1.75 4.23 1.66 3.98 1.57 3.7 1.45 3.39 1.34 3.03 1.19 2.67 1.04 2.25 0.87 1.8 0.68 1.33 0.48 0.75 0.25 -1.56 0.63 2.78 2.3 -2.22 0.51 -0.95 -0.31 -1.39 -0.5 -1.84 -0.7 -2.27 -0.87 -2.67 -1.04 -3.05 -1.19 -3.39 -1.34 -3.7 -1.45 -3.98 -1.57 -4.23 -1.66 -4.44 -1.75 -4.64 -1.81 -4.79 -1.87 -4.92 -1.91 -5.01 -1.93 -5.07 -1.94 -5.1 -1.94 -5.11 -1.92 -5.07 -1.9 -5.01 -1.84 -4.92 -1.78 -4.79 -1.71 -4.63 -1.63 -4.44 -1.51 -4.22 -1.4 -3.97 -1.27 -3.7 -1.12 -3.36 -0.96 -3.01 -0.79 -2.61 -0.58 -2.18 -0.39 0 0 0.52 -3.56zm-138.76 12.4l0 0 3.92 -0.95 3.96 -0.93 4 -0.92 4.03 -0.9 4.06 -0.89 4.11 -0.89 4.14 -0.85 4.17 -0.83 4.21 -0.8 4.23 -0.78 4.26 -0.74 4.28 -0.7 4.32 -0.66 4.34 -0.64 4.36 -0.58 4.38 -0.53 4.4 -0.49 4.43 -0.43 4.44 -0.37 4.45 -0.32 4.48 -0.25 4.48 -0.2 4.51 -0.12 4.49 -0.06 4.52 0.02 4.53 0.1 4.53 0.17 4.55 0.25 4.54 0.34 4.55 0.42 4.54 0.52 4.55 0.61 -0.52 3.56 -4.47 -0.61 -4.48 -0.5 -4.47 -0.42 -4.48 -0.34 -4.47 -0.25 -4.47 -0.17 -4.47 -0.1 -4.46 0 -4.45 0.04 -4.43 0.12 -4.44 0.2 -4.42 0.25 -4.41 0.32 -4.4 0.37 -4.37 0.43 -4.36 0.47 -4.34 0.53 -4.32 0.58 -4.3 0.62 -4.28 0.66 -4.26 0.7 -4.22 0.74 -4.21 0.76 -4.17 0.8 -4.15 0.83 -4.1 0.85 -4.09 0.87 -4.06 0.89 -4.01 0.9 -3.98 0.92 -3.94 0.93 -3.9 0.93 0 0 -0.86 -3.48zm-14.76 -4.61l0 0 0.24 0.35 0.26 0.33 0.27 0.33 0.31 0.31 0.34 0.32 0.33 0.3 0.38 0.28 0.38 0.29 0.39 0.25 0.44 0.26 0.44 0.25 0.44 0.22 0.46 0.21 0.48 0.2 0.49 0.18 0.51 0.17 0.51 0.15 0.53 0.14 0.53 0.12 0.53 0.1 0.53 0.09 0.55 0.07 0.56 0.05 0.53 0.04 0.55 0.01 0.57 0 0.54 -0.02 0.54 -0.05 0.55 -0.05 0.53 -0.08 0.53 -0.1 0.52 -0.11 0.86 3.48 -0.66 0.15 -0.65 0.12 -0.69 0.1 -0.65 0.07 -0.68 0.05 -0.68 0.02 -0.65 0 -0.67 -0.01 -0.69 -0.04 -0.64 -0.07 -0.67 -0.07 -0.67 -0.11 -0.65 -0.12 -0.65 -0.16 -0.63 -0.16 -0.63 -0.19 -0.61 -0.21 -0.61 -0.22 -0.6 -0.24 -0.6 -0.27 -0.58 -0.3 -0.56 -0.31 -0.52 -0.32 -0.55 -0.35 -0.5 -0.37 -0.48 -0.38 -0.49 -0.42 -0.44 -0.42 -0.43 -0.45 -0.41 -0.47 -0.38 -0.49 -0.34 -0.51 0 0 3.04 -1.94zm12.38 -15.35l0 0 -0.85 0.67 -0.83 0.65 -0.8 0.65 -0.78 0.64 -0.77 0.64 -0.73 0.62 -0.72 0.63 -0.68 0.61 -0.66 0.61 -0.64 0.59 -0.6 0.59 -0.56 0.57 -0.54 0.56 -0.5 0.57 -0.48 0.54 -0.43 0.52 -0.39 0.51 -0.36 0.5 -0.32 0.49 -0.27 0.44 -0.22 0.45 -0.21 0.43 -0.15 0.38 -0.11 0.37 -0.08 0.35 -0.05 0.29 0 0.27 0.02 0.29 0.03 0.24 0.07 0.22 0.1 0.23 0.13 0.23 -3.04 1.94 -0.33 -0.57 -0.26 -0.61 -0.19 -0.64 -0.11 -0.64 -0.04 -0.61 0.02 -0.65 0.09 -0.65 0.14 -0.61 0.19 -0.63 0.25 -0.62 0.27 -0.59 0.32 -0.61 0.37 -0.62 0.4 -0.59 0.42 -0.6 0.47 -0.61 0.51 -0.62 0.52 -0.6 0.56 -0.61 0.58 -0.62 0.62 -0.63 0.66 -0.63 0.66 -0.63 0.7 -0.65 0.72 -0.63 0.74 -0.65 0.77 -0.66 0.79 -0.66 0.8 -0.66 0.84 -0.67 0.85 -0.67 0.85 -0.67 0 0 2.24 2.82zm143.02 -39.06l0 0 -5.12 -0.68 -5.1 -0.53 -5.03 -0.41 -5.01 -0.28 -4.95 -0.14 -4.91 0 -4.87 0.12 -4.83 0.25 -4.78 0.38 -4.75 0.49 -4.7 0.63 -4.65 0.74 -4.61 0.87 -4.57 0.98 -4.53 1.11 -4.49 1.21 -4.44 1.34 -4.41 1.45 -4.35 1.56 -4.33 1.67 -4.28 1.79 -4.23 1.9 -4.2 2 -4.15 2.1 -4.11 2.21 -4.07 2.32 -4.03 2.42 -3.99 2.51 -3.95 2.62 -3.9 2.71 -3.86 2.82 -3.82 2.9 -2.24 -2.82 3.88 -2.96 3.94 -2.86 3.96 -2.75 4.01 -2.66 4.07 -2.57 4.09 -2.46 4.15 -2.36 4.19 -2.25 4.23 -2.14 4.26 -2.04 4.33 -1.94 4.36 -1.81 4.41 -1.71 4.45 -1.6 4.49 -1.47 4.54 -1.36 4.57 -1.25 4.63 -1.13 4.67 -1 4.71 -0.89 4.75 -0.76 4.8 -0.63 4.83 -0.51 4.88 -0.38 4.93 -0.25 4.97 -0.12 5.01 0 5.05 0.14 5.09 0.28 5.13 0.41 5.18 0.55 5.22 0.68 0 0 -0.52 3.56z"/>
   <path id="1" class="fil16" d="M6139.77 2995.44c41.36,5.98 75.44,14.18 103.76,40.59 16.44,-35.27 46.06,-55.88 82.58,-76.76 48.53,-27.74 99.3,-30.87 149.11,-16.29 10.47,3.06 18.74,6.2 18.37,10.87 -0.46,5.78 -6.92,11.15 -13.66,12.1 -42.29,5.87 -90.8,14.98 -132.92,39.07 -36.18,20.68 -63.86,52.16 -90.61,83.3 -0.53,0.63 -96.98,-39.5 -119.03,-42.7 -48.11,-6.96 -96.58,2.34 -138.07,12.36 -6.25,1.51 -13.72,-0.75 -16.71,-5.38 -2.74,-4.24 3.58,-10.57 12.78,-17.73 40.86,-31.77 88.98,-47.43 144.4,-39.43z"/>
  </g>
  <g>
   <path class="fil15" d="M6512.51 3167.63l-0.54 -2.1 -0.01 0 5.73 -1.39 5.82 -1.24 5.92 -1.09 5.98 -0.94 6.05 -0.76 6.1 -0.61 6.16 -0.45 6.18 -0.28 6.22 -0.11 6.24 0.06 6.24 0.24 6.24 0.41 6.24 0.59 6.21 0.78 6.2 0.96 6.15 1.15 6.1 1.33 6.06 1.54 5.98 1.72 5.91 1.93 5.83 2.13 5.73 2.33 5.63 2.54 5.52 2.75 5.39 2.96 5.27 3.17 5.12 3.39 4.97 3.62 4.81 3.83 4.64 4.06 4.46 4.29 4.28 4.52 -1.64 1.44 -4.2 -4.44 -4.38 -4.21 -4.56 -4 -4.75 -3.77 -4.89 -3.56 -5.04 -3.33 -5.19 -3.13 -5.31 -2.92 -5.44 -2.71 -5.55 -2.5 -5.67 -2.31 -5.75 -2.09 -5.83 -1.91 -5.92 -1.7 -5.98 -1.52 -6.04 -1.33 -6.09 -1.13 -6.12 -0.94 -6.15 -0.78 -6.18 -0.59 -6.18 -0.41 -6.18 -0.22 -6.18 -0.06 -6.16 0.11 -6.12 0.26 -6.08 0.45 -6.06 0.61 -5.99 0.76 -5.92 0.92 -5.84 1.07 -5.76 1.24 -5.67 1.37 -0.01 0zm-11.48 9.15l-1.78 1.26 0 0 -0.26 -0.37 -0.23 -0.4 -0.2 -0.41 -0.16 -0.42 -0.13 -0.44 -0.07 -0.43 -0.05 -0.44 0 -0.47 0.05 -0.46 0.09 -0.45 0.14 -0.46 0.19 -0.44 0.24 -0.44 0.28 -0.43 0.31 -0.4 0.36 -0.42 0.42 -0.41 0.44 -0.39 0.49 -0.38 0.54 -0.38 0.58 -0.36 0.62 -0.38 0.68 -0.36 0.72 -0.34 0.77 -0.35 0.83 -0.35 0.88 -0.34 0.92 -0.33 0.98 -0.32 1.04 -0.32 1.1 -0.32 1.15 -0.3 0.54 2.1 -1.11 0.3 -1.06 0.3 -0.98 0.3 -0.94 0.32 -0.88 0.31 -0.82 0.32 -0.77 0.31 -0.71 0.33 -0.66 0.32 -0.6 0.32 -0.56 0.32 -0.5 0.32 -0.44 0.32 -0.41 0.32 -0.36 0.31 -0.3 0.29 -0.26 0.3 -0.23 0.3 -0.18 0.27 -0.14 0.28 -0.11 0.26 -0.08 0.24 -0.05 0.25 -0.03 0.24 0 0.23 0.03 0.24 0.05 0.25 0.07 0.24 0.1 0.26 0.12 0.25 0.15 0.26 0.18 0.27 0 0zm13.34 5.64l-0.18 2.16 0 0 -0.57 -0.05 -0.57 -0.07 -0.56 -0.08 -0.57 -0.09 -0.56 -0.09 -0.57 -0.12 -0.55 -0.12 -0.56 -0.13 -0.55 -0.14 -0.55 -0.15 -0.53 -0.16 -0.54 -0.17 -0.52 -0.18 -0.53 -0.18 -0.51 -0.2 -0.5 -0.21 -0.49 -0.21 -0.48 -0.22 -0.47 -0.23 -0.45 -0.25 -0.44 -0.24 -0.45 -0.26 -0.41 -0.26 -0.41 -0.27 -0.38 -0.28 -0.37 -0.28 -0.36 -0.3 -0.33 -0.3 -0.32 -0.31 -0.3 -0.32 -0.28 -0.33 -0.26 -0.34 1.78 -1.26 0.18 0.24 0.22 0.25 0.22 0.24 0.26 0.25 0.27 0.24 0.28 0.24 0.33 0.24 0.32 0.24 0.35 0.23 0.37 0.24 0.37 0.22 0.4 0.22 0.41 0.21 0.43 0.21 0.42 0.2 0.45 0.19 0.46 0.19 0.47 0.18 0.47 0.18 0.48 0.16 0.5 0.15 0.51 0.16 0.49 0.13 0.51 0.14 0.52 0.11 0.53 0.12 0.51 0.1 0.52 0.09 0.53 0.09 0.52 0.06 0.53 0.07 0.51 0.05 0 0zm142.35 55.64l-1.64 1.44 0 0 -3.31 -3.52 -3.44 -3.39 -3.54 -3.24 -3.66 -3.08 -3.76 -2.96 -3.87 -2.8 -3.96 -2.68 -4.05 -2.54 -4.14 -2.43 -4.21 -2.29 -4.29 -2.18 -4.37 -2.05 -4.43 -1.95 -4.49 -1.83 -4.55 -1.73 -4.6 -1.62 -4.63 -1.53 -4.68 -1.42 -4.72 -1.33 -4.75 -1.24 -4.77 -1.15 -4.79 -1.08 -4.8 -0.99 -4.82 -0.91 -4.82 -0.85 -4.82 -0.77 -4.81 -0.7 -4.81 -0.64 -4.79 -0.59 -4.77 -0.53 -4.73 -0.47 -4.71 -0.43 0.18 -2.16 4.73 0.43 4.77 0.47 4.79 0.53 4.81 0.59 4.83 0.64 4.85 0.72 4.84 0.77 4.86 0.85 4.84 0.93 4.84 0.99 4.83 1.08 4.81 1.17 4.79 1.24 4.76 1.35 4.72 1.44 4.69 1.53 4.64 1.64 4.59 1.75 4.55 1.85 4.49 1.97 4.41 2.09 4.35 2.2 4.27 2.33 4.2 2.45 4.11 2.58 4.02 2.72 3.93 2.86 3.82 3 3.72 3.14 3.62 3.28 3.5 3.45 3.37 3.6 0 0zm65.34 119.66l-0.92 1.98 0 0 -1.14 -0.78 -1.09 -1.15 -1.12 -1.51 -1.18 -1.87 -1.27 -2.22 -1.34 -2.55 -1.44 -2.85 -1.51 -3.15 -1.6 -3.42 -1.67 -3.65 -1.75 -3.88 -1.83 -4.09 -1.9 -4.26 -1.97 -4.42 -2.04 -4.55 -2.11 -4.66 -2.18 -4.75 -2.23 -4.82 -2.3 -4.87 -2.36 -4.88 -2.4 -4.88 -2.47 -4.84 -2.52 -4.81 -2.57 -4.74 -2.62 -4.64 -2.66 -4.52 -2.71 -4.39 -2.74 -4.23 -2.78 -4.03 -2.82 -3.84 -2.86 -3.6 -2.88 -3.35 1.64 -1.44 2.94 3.41 2.9 3.66 2.86 3.9 2.82 4.09 2.78 4.27 2.73 4.43 2.68 4.56 2.64 4.68 2.59 4.76 2.52 4.83 2.49 4.88 2.42 4.9 2.36 4.9 2.3 4.87 2.25 4.84 2.18 4.75 2.11 4.68 2.04 4.55 1.97 4.42 1.9 4.26 1.83 4.09 1.75 3.86 1.67 3.65 1.58 3.4 1.49 3.11 1.42 2.83 1.32 2.49 1.23 2.14 1.12 1.77 1 1.35 0.85 0.91 0.6 0.42 0 0zm127.29 -48.71l0.34 2.14 0 0 -4.07 0.72 -4.24 0.93 -4.42 1.13 -4.56 1.31 -4.69 1.48 -4.78 1.63 -4.9 1.77 -4.94 1.87 -5.01 1.99 -5.04 2.06 -5.04 2.14 -5.05 2.18 -5.01 2.23 -4.97 2.25 -4.92 2.24 -4.83 2.22 -4.73 2.21 -4.62 2.15 -4.48 2.09 -4.33 2.01 -4.15 1.93 -3.97 1.8 -3.75 1.67 -3.53 1.54 -3.28 1.37 -3.03 1.19 -2.74 1.02 -2.47 0.79 -2.15 0.57 -1.86 0.33 -1.6 0.05 -1.39 -0.32 0.92 -1.98 0.63 0.14 1.18 -0.05 1.64 -0.29 2.01 -0.53 2.37 -0.77 2.68 -0.98 2.97 -1.17 3.26 -1.37 3.51 -1.52 3.73 -1.67 3.95 -1.8 4.15 -1.91 4.31 -2.01 4.48 -2.09 4.62 -2.15 4.75 -2.21 4.83 -2.24 4.92 -2.24 4.99 -2.25 5.03 -2.23 5.07 -2.2 5.06 -2.14 5.06 -2.08 5.03 -1.99 4.98 -1.89 4.92 -1.77 4.84 -1.65 4.73 -1.5 4.62 -1.33 4.48 -1.15 4.34 -0.95 4.15 -0.72 0 0zm151.41 48.99l-1.3 1.74 0 0 -3.85 -2.79 -3.93 -2.77 -4 -2.75 -4.08 -2.7 -4.15 -2.67 -4.21 -2.63 -4.29 -2.57 -4.35 -2.51 -4.42 -2.44 -4.46 -2.37 -4.53 -2.3 -4.58 -2.22 -4.63 -2.12 -4.68 -2.03 -4.73 -1.93 -4.76 -1.83 -4.82 -1.71 -4.84 -1.61 -4.88 -1.47 -4.93 -1.34 -4.94 -1.2 -4.97 -1.07 -5 -0.91 -5.03 -0.76 -5.04 -0.61 -5.07 -0.44 -5.07 -0.26 -5.09 -0.09 -5.1 0.09 -5.11 0.27 -5.12 0.48 -5.11 0.67 -0.34 -2.14 5.21 -0.69 5.2 -0.48 5.19 -0.29 5.18 -0.09 5.17 0.09 5.15 0.28 5.13 0.44 5.12 0.61 5.09 0.78 5.06 0.93 5.05 1.07 5 1.22 4.97 1.36 4.94 1.49 4.9 1.61 4.86 1.73 4.82 1.85 4.77 1.95 4.72 2.05 4.67 2.14 4.62 2.24 4.57 2.32 4.5 2.39 4.44 2.46 4.39 2.53 4.31 2.59 4.25 2.63 4.17 2.69 4.12 2.72 4.02 2.77 3.95 2.79 3.87 2.81 0 0zm9.21 -6.26l1.82 -1.22 0 0 0.48 0.74 0.45 0.78 0.42 0.78 0.38 0.8 0.35 0.81 0.3 0.81 0.27 0.82 0.22 0.8 0.18 0.81 0.13 0.78 0.06 0.78 0.02 0.75 -0.04 0.73 -0.11 0.7 -0.18 0.68 -0.28 0.65 -0.37 0.58 -0.46 0.53 -0.58 0.44 -0.64 0.33 -0.73 0.21 -0.78 0.1 -0.84 -0.01 -0.9 -0.11 -0.95 -0.24 -1.01 -0.33 -1.08 -0.45 -1.17 -0.56 -1.23 -0.68 -1.33 -0.8 -1.41 -0.94 -1.5 -1.07 1.3 -1.74 1.44 1.03 1.35 0.88 1.25 0.76 1.15 0.64 1.05 0.5 0.96 0.39 0.85 0.29 0.75 0.18 0.64 0.09 0.56 0.01 0.46 -0.06 0.35 -0.11 0.3 -0.15 0.24 -0.18 0.2 -0.23 0.19 -0.3 0.14 -0.35 0.12 -0.42 0.07 -0.48 0.04 -0.55 -0.02 -0.59 -0.06 -0.62 -0.11 -0.66 -0.14 -0.69 -0.2 -0.7 -0.23 -0.72 -0.28 -0.73 -0.31 -0.71 -0.34 -0.72 -0.38 -0.72 -0.39 -0.68 -0.44 -0.66 0 0zm1.82 -1.22l0 0 0 0 0 0zm-173.11 -86.23l-0.32 -2.14 0 0 6.38 -0.79 6.39 -0.46 6.39 -0.16 6.37 0.17 6.37 0.45 6.34 0.73 6.31 1.01 6.27 1.28 6.24 1.54 6.18 1.78 6.12 2.03 6.06 2.25 6 2.46 5.91 2.68 5.84 2.89 5.74 3.06 5.65 3.25 5.55 3.43 5.45 3.58 5.33 3.74 5.2 3.88 5.08 4.02 4.93 4.14 4.8 4.26 4.65 4.37 4.51 4.46 4.33 4.56 4.17 4.63 4 4.7 3.81 4.76 3.63 4.81 3.43 4.86 -1.82 1.22 -3.39 -4.8 -3.59 -4.77 -3.77 -4.7 -3.96 -4.66 -4.13 -4.59 -4.29 -4.5 -4.45 -4.42 -4.61 -4.33 -4.76 -4.22 -4.89 -4.1 -5.02 -3.98 -5.16 -3.84 -5.27 -3.7 -5.39 -3.56 -5.49 -3.39 -5.59 -3.21 -5.68 -3.04 -5.78 -2.85 -5.85 -2.64 -5.92 -2.44 -6 -2.23 -6.04 -1.99 -6.1 -1.76 -6.14 -1.52 -6.19 -1.26 -6.21 -0.99 -6.24 -0.73 -6.27 -0.45 -6.27 -0.15 -6.29 0.14 -6.27 0.46 -6.28 0.77 0 0zm-95.23 35.1l2.16 -0.3 -1.81 -0.66 2.4 -2.06 2.43 -1.98 2.46 -1.9 2.49 -1.81 2.53 -1.76 2.56 -1.67 2.6 -1.61 2.63 -1.53 2.66 -1.48 2.7 -1.4 2.73 -1.34 2.78 -1.29 2.81 -1.22 2.84 -1.17 2.88 -1.12 2.92 -1.06 2.95 -1.02 3 -0.97 3.03 -0.93 3.07 -0.89 3.11 -0.84 3.15 -0.8 3.2 -0.78 3.23 -0.73 3.27 -0.7 3.33 -0.67 3.35 -0.66 3.41 -0.62 3.44 -0.59 3.48 -0.58 3.54 -0.56 3.58 -0.54 0.32 2.14 -3.56 0.54 -3.52 0.56 -3.48 0.58 -3.42 0.59 -3.39 0.62 -3.33 0.64 -3.29 0.67 -3.25 0.7 -3.21 0.73 -3.16 0.76 -3.13 0.8 -3.07 0.84 -3.05 0.87 -2.99 0.91 -2.96 0.97 -2.91 1 -2.88 1.06 -2.84 1.1 -2.8 1.15 -2.77 1.2 -2.72 1.27 -2.69 1.32 -2.66 1.38 -2.62 1.44 -2.57 1.51 -2.56 1.57 -2.5 1.65 -2.49 1.72 -2.45 1.79 -2.42 1.86 -2.37 1.94 -2.36 2.02 -1.81 -0.66zm1.81 0.66l-1.53 1.35 -0.28 -2.01 1.81 0.66zm-51.56 -89.65l1.64 -1.44 0 0 2.45 2.74 2.42 2.73 2.36 2.71 2.32 2.71 2.27 2.7 2.22 2.69 2.17 2.69 2.12 2.69 2.06 2.68 2.01 2.69 1.95 2.69 1.9 2.69 1.84 2.7 1.78 2.72 1.71 2.71 1.66 2.74 1.59 2.75 1.54 2.76 1.46 2.78 1.4 2.8 1.32 2.82 1.26 2.84 1.19 2.87 1.11 2.9 1.04 2.92 0.97 2.96 0.88 2.99 0.82 3.01 0.74 3.05 0.64 3.1 0.58 3.13 0.49 3.17 -2.16 0.3 -0.49 -3.11 -0.56 -3.07 -0.64 -3.04 -0.72 -2.99 -0.8 -2.97 -0.88 -2.93 -0.95 -2.9 -1.02 -2.88 -1.09 -2.84 -1.17 -2.81 -1.24 -2.8 -1.3 -2.78 -1.38 -2.76 -1.44 -2.74 -1.5 -2.72 -1.57 -2.71 -1.64 -2.7 -1.69 -2.69 -1.76 -2.68 -1.82 -2.66 -1.88 -2.67 -1.93 -2.67 -1.99 -2.67 -2.06 -2.66 -2.1 -2.67 -2.15 -2.67 -2.2 -2.67 -2.27 -2.68 -2.3 -2.69 -2.36 -2.71 -2.4 -2.71 -2.45 -2.74 0 0z"/>
   <path id="1" class="fil16" d="M6694.52 3209.68c-44.15,-49.02 -122.02,-58.66 -182.28,-43.1 -12.4,3.19 -14.57,7.4 -12.1,10.83 2.25,3.13 8.35,5.59 14.14,6.09 50.16,4.3 106.62,16.43 141.62,55.28 31.22,34.66 56.96,115.93 65.7,119.93 8.69,3.97 85.09,-42.12 127.92,-48.63 55.06,-8.36 109.86,18.79 150.59,48.79 16.25,11.95 15.78,-0.38 10.77,-7.74 -35.35,-51.69 -104.9,-97.97 -172.36,-87.91 -38.34,5.7 -68.82,13.83 -93.99,36.02 -4.76,-33.73 -23.61,-60.29 -50.01,-89.56z"/>
  </g>
 </g>
</svg>
